<svg width="106" height="106" viewBox="0 0 106 106" fill="none" xmlns="http://www.w3.org/2000/svg">
<path fill-rule="evenodd" clip-rule="evenodd" d="M82.461 97.2163H23.539C19.3675 97.2163 15.643 95.4298 12.9613 92.6756C11.1736 90.8891 8.11947 87.7627 6.10822 84.8596C2.53268 79.5745 0.0744905 74.4382 0 72.2795V88.3582C0 98.1096 7.97049 106 17.6543 106H72.1068C74.3415 105.926 80.3008 103.246 85.4406 99.5983C88.3457 97.5885 91.2509 94.4621 93.0387 92.6756C90.4315 95.3554 86.558 97.2163 82.461 97.2163Z" fill="#29A3D2"/>
<path fill-rule="evenodd" clip-rule="evenodd" d="M12.8124 13.5477C14.6001 11.7612 17.6543 8.48594 20.5594 6.40168C25.6992 2.75421 31.733 0.148876 33.9677 0H17.6543C7.97049 0.0744381 0 8.03932 0 17.7163V72.2794C0.0744905 74.5125 2.53268 79.5743 6.10822 84.8594C8.11947 87.7625 11.1736 90.8889 12.9613 92.6754C10.3542 89.9957 8.86437 86.4226 8.86437 82.4774V23.5969C8.86437 19.5772 10.2052 16.2275 12.8124 13.5477Z" fill="#30609A"/>
<path fill-rule="evenodd" clip-rule="evenodd" d="M23.0921 8.93284H82.0141C86.1855 8.93284 89.9845 10.7194 92.6662 13.4736C94.454 15.2601 97.5081 18.3865 99.5193 21.2896C103.095 26.5747 105.553 31.6365 105.628 33.8696V17.7165C105.628 8.03959 97.6571 0.074707 87.9733 0.074707H33.5952C31.3605 0.149145 25.4013 2.82892 20.2614 6.47638C17.4308 8.48621 14.4512 11.6126 12.6634 13.3991C15.1961 10.7194 19.0696 8.93284 23.0921 8.93284Z" fill="#29A3D2"/>
<path fill-rule="evenodd" clip-rule="evenodd" d="M93.1876 92.5266C91.3998 94.3132 88.3457 97.5884 85.4406 99.5983C80.3007 103.246 74.267 105.851 72.0323 106H88.3457C98.104 106 106 98.0351 106 88.3581V33.8694C105.925 31.6363 103.467 26.5745 99.8918 21.2894C97.8805 18.3863 94.8264 15.2599 93.0386 13.4734C95.5713 16.0787 97.1356 19.6518 97.1356 23.6714V82.5519C97.2101 86.4972 95.7948 89.8469 93.1876 92.5266Z" fill="#30609A"/>
</svg>
