<svg aria-hidden="true" style="position: absolute; width: 0; height: 0; overflow: hidden;" version="1.1" xmlns="http://www.w3.org/2000/svg" xmlns:xlink="http://www.w3.org/1999/xlink">
    <defs>
        <symbol id="icon-close" viewBox="0 0 32 32">
            <path d="M32 1.885l-1.885-1.885-14.115 14.115-14.115-14.115-1.885 1.885 14.115 14.115-14.115 14.115 1.885 1.885 14.115-14.115 14.115 14.115 1.885-1.885-14.115-14.115z"></path>
        </symbol>
        <symbol id="icon-arrow-left" viewBox="0 0 32 32">
            <path fill="#30609a" style="fill: var(--iconColor, #30609a)" d="M31.333 17.917v-3.833h-23l7.667-7.667-1.917-3.833-13.417 13.417 13.417 13.417 1.917-3.833-7.667-7.667h23z"></path>
        </symbol>
        <symbol id="icon-arrow-right" viewBox="0 0 32 32">
            <path fill="#30609a" style="fill: var(--iconColor, #30609a)" d="M0.666 17.917v-3.833h23l-7.667-7.667 1.917-3.833 13.417 13.417-13.417 13.417-1.917-3.833 7.667-7.667h-23z"></path>
        </symbol>
        <symbol id="icon-chevron-right-white" viewBox="0 0 32 32">
            <path fill="#fff" style="fill: var(--iconColor, #fff)" d="M10.343 30.269l14.795-14.795-14.795-14.795-3.481 3.481 11.314 11.314-11.314 11.314 3.481 3.481z"></path>
        </symbol>
        <symbol id="icon-clock" viewBox="0 0 32 32">
            <path d="M16 0c-8.822 0-16 7.178-16 16s7.178 16 16 16c8.822 0 16-7.178 16-16s-7.178-16-16-16zM16 28.8c-7.058 0-12.8-5.742-12.8-12.8s5.742-12.8 12.8-12.8c7.058 0 12.8 5.742 12.8 12.8s-5.742 12.8-12.8 12.8z"></path>
            <path d="M17.6 8h-3.2v9.6h9.6v-3.2h-6.4v-6.4z"></path>
        </symbol>
        <symbol id="icon-mail" viewBox="0 0 32 32">
            <path d="M0 6.4v19.2c0 1.767 1.433 3.2 3.2 3.2h25.6c1.767 0 3.2-1.433 3.2-3.2v-19.2c0-1.767-1.433-3.2-3.2-3.2h-25.6c-1.767 0-3.2 1.433-3.2 3.2zM28.8 9.39v16.21h-25.6v-16.21l12.8 8.533 12.8-8.533zM27.516 6.4l-11.516 7.677-11.516-7.677h23.031z"></path>
        </symbol>
        <symbol id="icon-phone" viewBox="0 0 32 32">
            <path d="M25.131 16.468c-0.626-0.626-1.637-0.626-2.262 0l-2.55 2.55c-1.182-0.352-3.389-1.152-4.787-2.55s-2.198-3.605-2.55-4.787l2.55-2.55c0.626-0.626 0.626-1.637 0-2.262l-6.4-6.4c-0.626-0.626-1.637-0.626-2.262 0l-4.339 4.339c-0.608 0.608-0.95 1.443-0.938 2.296 0.037 2.278 0.64 10.192 6.877 16.429s14.15 6.838 16.43 6.877c0.008 0 0.037 0 0.045 0 0.845 0 1.643-0.333 2.248-0.938l4.339-4.339c0.626-0.626 0.626-1.637 0-2.262l-6.4-6.402zM24.928 27.208c-1.997-0.034-8.829-0.57-14.197-5.939-5.386-5.386-5.907-12.242-5.939-14.198l3.208-3.208 4.138 4.138-2.069 2.069c-0.382 0.381-0.546 0.931-0.435 1.459 0.038 0.184 0.978 4.547 3.634 7.203s7.019 3.595 7.203 3.634c0.533 0.114 1.078-0.051 1.459-0.434l2.070-2.069 4.138 4.138-3.21 3.208z"></path>
        </symbol>
        <symbol id="icon-search" viewBox="0 0 32 32">
            <path d="M30.934 28.351l-7.399-7.463c1.918-2.18 2.946-4.954 2.946-7.794 0-6.671-5.686-12.153-12.605-12.153s-12.605 5.482-12.605 12.153c0 6.671 5.686 12.153 12.605 12.153 2.603 0 5.070-0.727 7.193-2.18l7.467 7.529c0.342 0.33 0.753 0.462 1.165 0.462s0.822-0.132 1.165-0.462c0.685-0.594 0.685-1.585 0.069-2.246zM13.875 4.111c5.138 0 9.317 4.029 9.317 8.982s-4.179 8.982-9.317 8.982c-5.138 0-9.317-4.029-9.317-8.982s4.179-8.982 9.317-8.982z"></path>
        </symbol>
        <symbol id="icon-shopping-cart" viewBox="0 0 32 32">
            <path stroke-linejoin="miter" stroke-linecap="butt" stroke-miterlimit="4" stroke-width="1.3333" d="M6.683 6.89l-0.615-3.607c-0.254-1.51-1.569-2.619-3.112-2.616h-2.19c-0.057 0-0.098 0.045-0.098 0.095s0.041 0.095 0.098 0.095h2.188v0.667c1.12-0.002 2.078 0.803 2.263 1.903l1.466 3.463zM6.683 6.89h0.563M6.683 6.89h0.563M7.245 6.89h23.99c0.033 0 0.062 0.016 0.080 0.040s0.023 0.055 0.014 0.083l-2.384 7.4c-0.517 1.616-2.027 2.715-3.734 2.711h-16.783M7.245 6.89l1.182 10.234M8.427 17.124l0.133 0.779M8.427 17.124l0.133 0.779M8.56 17.902l0.278 1.633c0 0 0 0 0 0.001l-0.278-1.633zM11.642 31.143h0.001c1.466-0.002 2.658-1.185 2.66-2.651v-0.001c0-1.467-1.194-2.652-2.66-2.652s-2.66 1.185-2.661 2.652v0c0 1.467 1.194 2.652 2.66 2.652zM25.511 31.143h0.001c1.465-0.002 2.658-1.185 2.66-2.651v-0.001c0-1.467-1.194-2.652-2.66-2.652s-2.66 1.185-2.66 2.652c0 1.467 1.193 2.652 2.66 2.652zM5.874 3.317c-0-0-0-0-0-0.001l5.884 18.012v0.667h16.309c0.057 0 0.098 0.045 0.098 0.095s-0.041 0.095-0.098 0.095h-16.311c-1.543 0.004-2.859-1.105-3.113-2.616l-0-0.001-2.77-16.251zM8.3 16.379l0.095 0.555h16.812l0.001-0.667v0.667h-0.001c1.619 0.003 3.057-1.039 3.55-2.579 0-0 0-0 0-0.001l2.344-7.273h-24.386l1.585 9.298zM11.642 31.333c-1.581 0-2.857-1.275-2.857-2.842l5.715 0.001c-0 1.567-1.277 2.842-2.857 2.842zM8.785 28.491c0-1.567 1.276-2.842 2.856-2.843l-2.856 2.843zM11.642 25.648c1.58 0.002 2.856 1.276 2.858 2.843l-2.858-2.843zM22.654 28.491c0-1.567 1.276-2.842 2.856-2.843l2.858 2.843c-0.001 1.567-1.277 2.842-2.857 2.842s-2.857-1.275-2.857-2.843zM25.51 25.648c1.58 0.002 2.856 1.276 2.858 2.843l-2.858-2.843z"></path>
        </symbol>
    </defs>
</svg>
