<svg width="142" height="54" viewBox="0 0 142 54" fill="none" xmlns="http://www.w3.org/2000/svg">
<path fill-rule="evenodd" clip-rule="evenodd" d="M73.0822 38.7334V46.3667H74.883V29.324H73.0822V37.0329H64.0032V29.324H62.2024V46.4045H64.0032V38.7712H73.0822V38.7334ZM76.6463 37.5241C76.4962 37.902 76.3461 38.3177 76.2711 38.7712C76.1961 39.1868 76.1585 39.6403 76.1585 40.0938C76.1585 40.5472 76.1961 41.0007 76.2711 41.4164C76.3461 41.8321 76.4962 42.2477 76.6463 42.6634C76.8338 43.0413 77.0214 43.4192 77.2465 43.7593C77.4716 44.0994 77.7342 44.4395 77.9968 44.704C78.297 45.0063 78.5971 45.233 78.9348 45.4598C79.2724 45.6865 79.6476 45.8754 80.0227 46.0644C80.3979 46.2155 80.8106 46.3667 81.2608 46.4423C81.6735 46.5178 82.1237 46.5556 82.5739 46.5556C83.0241 46.5556 83.4743 46.5178 83.8869 46.4423C84.2996 46.3667 84.7123 46.2155 85.125 46.0644C85.5001 45.8754 85.8753 45.6865 86.213 45.4598C86.5506 45.233 86.8883 44.9685 87.1509 44.704C87.4135 44.4017 87.6761 44.0994 87.9012 43.7593C88.1263 43.4192 88.3139 43.0413 88.5015 42.6634C88.6515 42.2855 88.8016 41.8321 88.8766 41.4164C88.9517 41.0007 88.9892 40.5472 88.9892 40.0938C88.9892 39.6403 88.9517 39.1868 88.8766 38.7712C88.8016 38.3555 88.6515 37.9398 88.5015 37.5241C88.3139 37.1463 88.1263 36.7684 87.9012 36.4283C87.6761 36.0882 87.4135 35.7481 87.1509 35.4836C86.8507 35.219 86.5506 34.9545 86.213 34.7278C85.8753 34.5011 85.5001 34.3121 85.125 34.1232C84.7498 33.972 84.3371 33.8209 83.8869 33.7453C83.4743 33.6697 83.0241 33.6319 82.5739 33.6319C82.1237 33.6319 81.6735 33.6697 81.2608 33.7453C80.8481 33.8209 80.4354 33.972 80.0227 34.1232C79.6476 34.3121 79.2724 34.5011 78.9348 34.7278C78.5971 34.9545 78.2595 35.219 77.9968 35.4836C77.7342 35.7859 77.4716 36.0882 77.2465 36.4283C77.0214 36.7684 76.7963 37.1085 76.6463 37.5241ZM80.698 35.6347C80.9982 35.5213 81.2983 35.408 81.5984 35.3702C81.8986 35.2946 82.2362 35.2568 82.5739 35.2568C82.9115 35.2568 83.2492 35.2946 83.5493 35.3702C83.8869 35.4458 84.1496 35.5213 84.4497 35.6347C84.7498 35.7481 85.0124 35.8992 85.2375 36.0882C85.5001 36.2771 85.6877 36.4661 85.9128 36.655C86.1379 36.8817 86.288 37.1085 86.4756 37.373C86.6256 37.6375 86.7757 37.902 86.8883 38.2043C87.0008 38.5067 87.1134 38.809 87.1509 39.1113C87.2259 39.4136 87.2634 39.7537 87.2634 40.0938C87.2634 40.4339 87.2259 40.774 87.1509 41.0763C87.1134 41.3786 87.0008 41.6809 86.8883 41.9832C86.7757 42.2855 86.6256 42.55 86.4756 42.8146C86.288 43.0791 86.1379 43.3058 85.9128 43.5325C85.5001 43.9482 85.0124 44.2883 84.4497 44.5528C84.1496 44.6662 83.8494 44.7418 83.5493 44.8174C83.2492 44.8929 82.9115 44.8929 82.5739 44.8929C82.2362 44.8929 81.8986 44.8551 81.5984 44.8174C81.2608 44.7418 80.9607 44.6662 80.698 44.5528C80.1353 44.3261 79.6101 43.986 79.1974 43.5325C78.9723 43.3058 78.8222 43.0791 78.6346 42.8146C78.4846 42.55 78.3345 42.2855 78.2219 41.9832C78.1094 41.6809 77.9968 41.3786 77.9593 41.0763C77.9218 40.774 77.8843 40.4339 77.8843 40.0938C77.8843 39.7537 77.9218 39.4136 77.9593 39.1113C78.0344 38.7712 78.1094 38.4689 78.2219 38.2043C78.3345 37.902 78.4846 37.6375 78.6346 37.373C78.8222 37.1085 78.9723 36.8817 79.1974 36.655C79.385 36.4283 79.6476 36.2393 79.8727 36.0882C80.1353 35.8992 80.3979 35.7481 80.698 35.6347ZM90.0396 41.4542C90.0396 42.2099 90.1522 42.9279 90.3773 43.5703C90.6024 44.2127 90.94 44.7418 91.3902 45.1952C91.6153 45.422 91.8404 45.6109 92.1031 45.7999C92.3657 45.9888 92.6283 46.14 92.9284 46.2533C93.2285 46.3667 93.5287 46.4801 93.8663 46.5178C94.204 46.5934 94.5416 46.6312 94.9168 46.6312C95.2169 46.6312 95.4795 46.6312 95.7422 46.5934C96.0048 46.5556 96.2299 46.5178 96.455 46.4423C96.6801 46.3667 96.9052 46.2911 97.0927 46.2155C97.2803 46.14 97.4679 46.0266 97.6555 45.951C98.0307 45.7621 98.3308 45.4976 98.5559 45.233L98.6309 45.1197V46.14V46.4045H100.357V33.7831H98.6309V40.9629C98.6309 41.6053 98.5559 42.1344 98.3683 42.6256C98.1807 43.1169 97.9556 43.5325 97.618 43.8726C97.2803 44.2127 96.9052 44.4773 96.4925 44.6284C96.0423 44.8174 95.5546 44.8929 94.9918 44.8929C94.4666 44.8929 93.9789 44.8174 93.5662 44.6662C93.1535 44.515 92.8159 44.2883 92.5532 43.9482C92.2531 43.6459 92.028 43.268 91.878 42.8146C91.7279 42.3611 91.6529 41.8321 91.6529 41.2652V33.7831H90.0396V41.4542ZM103.358 39.867C103.583 39.9804 103.808 40.0938 104.033 40.2071C104.258 40.2827 104.521 40.3583 104.784 40.4339L105.534 40.585L106.322 40.7362L106.997 40.8495L107.672 41.0007C107.898 41.0385 108.085 41.1141 108.273 41.1519C108.46 41.2274 108.648 41.303 108.798 41.3786C108.948 41.4542 109.098 41.5297 109.211 41.6431C109.323 41.7565 109.436 41.8321 109.511 41.9832C109.586 42.0966 109.661 42.2099 109.698 42.3611C109.736 42.5122 109.773 42.7012 109.773 42.8901C109.773 43.2302 109.698 43.4948 109.586 43.7593C109.473 44.0238 109.286 44.2127 109.023 44.4017C108.76 44.5906 108.46 44.7418 108.048 44.8551C107.672 44.9685 107.185 45.0063 106.659 45.0063C106.097 45.0063 105.609 44.9307 105.196 44.8174C104.784 44.704 104.446 44.5528 104.146 44.3261C103.846 44.0994 103.621 43.8726 103.471 43.5703C103.283 43.268 103.17 42.8901 103.133 42.5122L103.095 42.2855H101.37L101.407 42.5878C101.482 43.268 101.67 43.8349 101.932 44.3639C102.195 44.8929 102.57 45.3086 103.02 45.6865C103.471 46.0266 103.996 46.2911 104.634 46.4423C105.234 46.6312 105.909 46.7068 106.659 46.7068C107.41 46.7068 108.085 46.6312 108.648 46.4423C109.248 46.2533 109.773 45.9888 110.186 45.6487C111.049 44.9307 111.462 44.0238 111.462 42.8901C111.462 42.5122 111.424 42.2099 111.349 41.9076C111.274 41.6053 111.161 41.3408 110.974 41.1141C110.824 40.8873 110.636 40.6984 110.449 40.5094C110.224 40.3205 109.998 40.1693 109.773 40.056C109.548 39.9426 109.286 39.8293 109.023 39.7537C108.76 39.6403 108.46 39.5647 108.198 39.5269L107.372 39.338L106.547 39.1868L105.947 39.0735L105.384 38.9601C105.196 38.9223 105.046 38.8467 104.896 38.809C104.746 38.7334 104.596 38.6956 104.484 38.62C104.371 38.5444 104.221 38.4689 104.146 38.3933C104.033 38.3177 103.958 38.2043 103.883 38.091C103.733 37.902 103.696 37.6375 103.696 37.2974C103.696 36.9951 103.733 36.7684 103.846 36.5416C103.958 36.3149 104.146 36.126 104.371 35.937C104.821 35.5969 105.534 35.408 106.434 35.408C106.697 35.408 106.96 35.4458 107.185 35.4458C107.597 35.4836 107.973 35.6347 108.31 35.8237C108.46 35.8992 108.61 36.0126 108.723 36.0882C108.835 36.2015 108.948 36.3149 109.061 36.4283C109.173 36.5416 109.248 36.6928 109.286 36.8062C109.361 36.9573 109.398 37.0707 109.436 37.2218C109.473 37.373 109.511 37.4864 109.511 37.6375L109.548 37.902H111.236L111.199 37.5997C111.161 37.0329 111.011 36.5039 110.786 36.0126C110.561 35.5213 110.224 35.1435 109.811 34.8034C109.398 34.4633 108.91 34.1987 108.31 34.0476C107.747 33.8586 107.147 33.7831 106.434 33.7831C105.759 33.7831 105.159 33.8586 104.634 34.0476C104.071 34.1987 103.621 34.4633 103.208 34.7656C102.795 35.1057 102.495 35.4836 102.27 35.937C102.045 36.3905 101.97 36.8817 101.97 37.4108C101.97 37.7509 102.007 38.0532 102.082 38.3177C102.157 38.62 102.27 38.8468 102.42 39.0735C102.57 39.2624 102.908 39.6025 103.358 39.867ZM112.287 38.7712C112.212 39.1868 112.174 39.6403 112.174 40.0938C112.174 40.5472 112.212 41.0007 112.287 41.4164C112.362 41.8321 112.475 42.2477 112.662 42.6634C112.812 43.0413 113 43.4192 113.262 43.7593C113.487 44.0994 113.75 44.4395 114.013 44.704C114.313 45.0063 114.613 45.233 114.951 45.4598C115.288 45.6865 115.663 45.8754 116.039 46.0644C116.414 46.2155 116.864 46.3667 117.277 46.4423C117.727 46.5178 118.177 46.5556 118.627 46.5556C119.34 46.5556 119.978 46.4801 120.541 46.3289C121.141 46.1777 121.666 45.951 122.116 45.6865C122.566 45.422 122.979 45.0819 123.354 44.704C123.729 44.3261 124.067 43.9104 124.367 43.4192L124.48 43.1924L123.129 42.2477L122.979 42.4745C122.754 42.8523 122.529 43.1924 122.229 43.457C121.929 43.7593 121.629 43.986 121.291 44.2127C120.616 44.6284 119.715 44.8174 118.59 44.8174C118.252 44.8174 117.989 44.7796 117.689 44.7418C117.389 44.704 117.127 44.6284 116.826 44.515C116.564 44.4017 116.301 44.2883 116.039 44.1372C115.776 43.986 115.588 43.8349 115.363 43.6459C115.138 43.457 114.951 43.268 114.763 43.0413C114.575 42.8146 114.425 42.5878 114.313 42.2855C114.2 42.021 114.088 41.7187 114.013 41.4164C113.975 41.1896 113.9 40.9629 113.9 40.6984H124.742L124.78 40.4717L124.817 40.3205L124.855 40.1316V39.9048V39.6403C124.855 39.2246 124.817 38.8467 124.742 38.4689C124.667 38.091 124.555 37.7131 124.405 37.3352C124.255 36.9573 124.067 36.6172 123.842 36.2771C123.617 35.937 123.392 35.6725 123.092 35.3702C122.792 35.1057 122.491 34.8412 122.154 34.6144C121.816 34.3877 121.478 34.1987 121.066 34.0098C120.691 33.8586 120.278 33.7075 119.828 33.6319C119.415 33.5563 118.965 33.5185 118.477 33.5185C118.027 33.5185 117.577 33.5563 117.164 33.6319C116.751 33.7075 116.339 33.8586 115.926 34.0098C115.551 34.1987 115.176 34.3877 114.838 34.6144C114.5 34.8412 114.2 35.1057 113.9 35.3702C113.6 35.6725 113.375 35.9748 113.15 36.3149C112.925 36.655 112.737 37.0329 112.55 37.4108C112.362 37.7887 112.362 38.3177 112.287 38.7712ZM123.092 39.1491H113.975C114.013 38.9223 114.05 38.7334 114.125 38.5444C114.2 38.2421 114.313 37.9776 114.463 37.7131C114.613 37.4486 114.763 37.2218 114.951 36.9951C115.138 36.7684 115.326 36.5794 115.513 36.3905C115.701 36.2015 115.926 36.0504 116.189 35.8992C116.414 35.7481 116.676 35.6347 116.939 35.5591C117.202 35.4458 117.464 35.3702 117.764 35.3324C118.027 35.2946 118.327 35.2568 118.627 35.2568C118.927 35.2568 119.227 35.2946 119.49 35.3324C119.753 35.3702 120.015 35.4458 120.315 35.5591C120.578 35.6725 120.841 35.7859 121.066 35.8992C121.291 36.0126 121.516 36.2015 121.741 36.3527C121.929 36.5416 122.116 36.7306 122.304 36.9573C122.491 37.184 122.641 37.4108 122.754 37.6753C122.904 37.9398 123.017 38.2043 123.092 38.5067C123.017 38.7334 123.054 38.9223 123.092 39.1491ZM125.305 24.3737C125.905 24.2225 126.393 24.0336 126.881 23.7313C127.331 23.429 127.781 23.1267 128.156 22.7488C128.532 22.3709 128.869 21.9174 129.169 21.464L129.282 21.2372L127.931 20.2925L127.781 20.557C127.556 20.9349 127.331 21.2372 127.031 21.5395C126.731 21.8418 126.431 22.0686 126.093 22.2953C125.418 22.711 124.555 22.8999 123.429 22.8999C123.092 22.8999 122.754 22.8621 122.454 22.7866C122.154 22.711 121.854 22.6354 121.554 22.522C121.253 22.4087 120.991 22.2575 120.766 22.0686C120.541 21.8796 120.315 21.6907 120.09 21.5018C119.865 21.275 119.715 21.0483 119.565 20.7838C119.415 20.5192 119.265 20.2547 119.152 19.9524C119.04 19.6501 118.965 19.3478 118.89 19.0455C118.852 18.7432 118.815 18.4031 118.815 18.063C118.815 17.7229 118.852 17.3828 118.89 17.0805C118.927 16.7404 119.04 16.4759 119.152 16.1735C119.265 15.8712 119.415 15.6067 119.565 15.3422C119.715 15.0777 119.903 14.8509 120.09 14.662C120.278 14.4731 120.503 14.2841 120.766 14.0952C121.028 13.9062 121.291 13.7551 121.554 13.6417C121.854 13.5283 122.154 13.415 122.454 13.3772C122.754 13.3016 123.092 13.2638 123.429 13.2638C124.555 13.2638 125.455 13.4906 126.131 13.9062C126.468 14.133 126.768 14.3597 127.068 14.662C127.331 14.9643 127.594 15.2666 127.819 15.6445L127.969 15.909L129.319 14.9643L129.207 14.7376C128.944 14.2463 128.607 13.8307 128.231 13.4528C127.856 13.0749 127.444 12.7348 126.993 12.4325C126.543 12.1302 126.018 11.9034 125.418 11.7901C124.817 11.6389 124.18 11.5633 123.467 11.5633C123.017 11.5633 122.566 11.6011 122.154 11.6767C121.741 11.7523 121.328 11.9034 120.953 12.0546C120.578 12.2057 120.203 12.4325 119.865 12.6592C119.528 12.8859 119.227 13.1505 118.927 13.4528C118.665 13.7551 118.402 14.0574 118.177 14.3975C117.952 14.7376 117.802 15.1155 117.614 15.4934C117.314 16.2869 117.164 17.1183 117.164 18.0252C117.164 18.4787 117.202 18.9321 117.277 19.3478C117.352 19.7635 117.464 20.1791 117.614 20.5948C117.764 20.9727 117.952 21.3506 118.177 21.6907C118.402 22.0308 118.627 22.3709 118.927 22.6354C119.227 22.9377 119.528 23.2022 119.865 23.429C120.203 23.6557 120.578 23.8446 120.953 24.0336C121.328 24.2225 121.741 24.3359 122.154 24.4115C122.566 24.4871 123.017 24.5248 123.467 24.5248C124.105 24.6004 124.742 24.5248 125.305 24.3737ZM129.394 19.4234C129.469 19.8391 129.582 20.2547 129.77 20.6704C129.92 21.0483 130.107 21.4262 130.332 21.7663C130.557 22.1064 130.82 22.4465 131.12 22.711C131.42 22.9755 131.72 23.24 132.058 23.5046C132.396 23.7313 132.771 23.9202 133.146 24.1092C133.559 24.2981 133.971 24.4115 134.384 24.4871C134.834 24.5626 135.285 24.6004 135.735 24.6004C136.41 24.6004 137.048 24.5248 137.648 24.3737C138.248 24.2225 138.774 24.0336 139.224 23.7313C139.674 23.429 140.124 23.1267 140.462 22.7488C140.837 22.3709 141.175 21.9174 141.475 21.464L141.625 21.2372L140.274 20.2925L140.124 20.557C139.899 20.9349 139.636 21.2372 139.374 21.5395C139.111 21.8418 138.774 22.0686 138.436 22.2953C137.761 22.711 136.86 22.9377 135.735 22.9377C135.397 22.9377 135.134 22.8999 134.834 22.8621C134.534 22.8244 134.272 22.7488 134.009 22.6354C133.746 22.522 133.484 22.4087 133.221 22.2575C132.959 22.1064 132.733 21.9552 132.546 21.7663C132.321 21.5773 132.133 21.3884 131.983 21.1617C131.796 20.9349 131.645 20.7082 131.533 20.4059C131.383 20.1414 131.308 19.8391 131.195 19.5367C131.158 19.31 131.083 19.0833 131.083 18.8188H141.925L141.962 18.592L142 18.4409L142.038 18.2519V18.0252V17.7607C142.038 17.3828 142 16.9671 141.925 16.5892C141.85 16.2113 141.737 15.8335 141.587 15.4556C141.437 15.0777 141.25 14.7376 141.025 14.4353C140.799 14.0952 140.574 13.7929 140.274 13.5283C140.012 13.2638 139.674 12.9993 139.374 12.7726C139.036 12.5458 138.699 12.3569 138.286 12.2057C137.911 12.0168 137.498 11.9034 137.048 11.8279C136.598 11.7523 136.185 11.7145 135.735 11.7145C135.285 11.7145 134.834 11.7523 134.422 11.8279C134.009 11.9034 133.596 12.0546 133.184 12.2057C132.808 12.3569 132.433 12.5836 132.096 12.8104C131.758 13.0371 131.42 13.3016 131.158 13.6039C130.858 13.9062 130.595 14.2085 130.37 14.5486C130.145 14.8887 129.957 15.2666 129.807 15.6445C129.62 16.0224 129.507 16.4381 129.432 16.8537C129.357 17.2694 129.319 17.7229 129.319 18.1763C129.282 18.5542 129.282 19.0077 129.394 19.4234ZM140.199 17.1561H131.083C131.12 16.9293 131.158 16.7404 131.233 16.5514C131.308 16.2491 131.42 15.9846 131.57 15.7201C131.72 15.4556 131.871 15.2288 132.021 15.0021C132.171 14.7754 132.396 14.5864 132.583 14.3975C132.771 14.2085 132.996 14.0574 133.259 13.944C133.521 13.7929 133.746 13.6795 134.009 13.5661C134.272 13.4528 134.534 13.3772 134.834 13.3394C135.097 13.3016 135.397 13.2638 135.697 13.2638C135.997 13.2638 136.298 13.3016 136.56 13.3394C136.823 13.3772 137.123 13.4528 137.385 13.5661C137.648 13.6417 137.911 13.7551 138.136 13.9062C138.361 14.0574 138.586 14.2085 138.774 14.3975C138.961 14.5864 139.149 14.7754 139.336 15.0021C139.524 15.2288 139.674 15.4556 139.787 15.7201C139.899 15.9846 140.012 16.2491 140.124 16.5514C140.124 16.7404 140.162 16.9671 140.199 17.1561ZM116.076 24.4115V11.8279H114.388V24.147V24.4115H116.076ZM110.036 20.4815V13.415H113.375V12.0924V11.8279H110.036V8.31351H108.348V11.8279H106.547V13.415H108.348V20.4815C108.348 20.8216 108.385 21.1617 108.423 21.464C108.498 21.8041 108.573 22.0686 108.685 22.3331C108.798 22.5976 108.948 22.7866 109.061 23.0133C109.211 23.2022 109.398 23.3912 109.548 23.5423C109.736 23.6935 109.923 23.8446 110.111 23.958C110.299 24.0714 110.524 24.147 110.749 24.2225C111.199 24.3359 111.649 24.4115 112.062 24.4115H113.262V22.7488H112.174C112.024 22.7488 111.912 22.7488 111.799 22.711C111.687 22.6732 111.537 22.6732 111.424 22.6354C111.312 22.5976 111.199 22.5598 111.086 22.4843C110.974 22.4465 110.861 22.3709 110.749 22.2953C110.636 22.2197 110.561 22.1064 110.486 21.993C110.411 21.8796 110.336 21.7663 110.261 21.6151C110.186 21.464 110.148 21.3128 110.111 21.1239C110.036 20.9349 110.036 20.746 110.036 20.4815ZM105.571 15.9468L106.922 15.0021L106.81 14.7754C106.547 14.2841 106.209 13.8684 105.834 13.4906C105.459 13.1127 105.046 12.7726 104.596 12.4703C104.146 12.168 103.621 11.9412 103.02 11.8279C102.42 11.6767 101.782 11.6011 101.069 11.6011C100.619 11.6011 100.169 11.6389 99.7564 11.7145C99.3437 11.7901 98.9311 11.9412 98.5184 12.0924C98.1432 12.2435 97.7681 12.4703 97.4304 12.697C97.0928 12.9237 96.7926 13.1882 96.53 13.4906C96.2299 13.7929 96.0048 14.0952 95.7797 14.4353C95.5546 14.7754 95.4045 15.1533 95.2169 15.5311C94.9168 16.3247 94.7667 17.1561 94.7667 18.063C94.7667 18.5164 94.8042 18.9699 94.8793 19.3856C94.9543 19.8013 95.0669 20.2169 95.2169 20.6326C95.367 21.0105 95.5546 21.3884 95.7797 21.7285C96.0048 22.0686 96.2299 22.4087 96.53 22.6732C96.7926 22.9755 97.1303 23.24 97.4304 23.4668C97.7681 23.6935 98.1432 23.8824 98.5184 24.0714C98.8935 24.2603 99.3062 24.3737 99.7564 24.4493C100.169 24.5248 100.619 24.5626 101.069 24.5626C101.745 24.5626 102.383 24.4871 102.945 24.3359C103.546 24.1847 104.033 23.9958 104.521 23.6935C104.971 23.3912 105.421 23.0889 105.797 22.711C106.172 22.3331 106.509 21.8796 106.81 21.4262L106.96 21.1994L105.609 20.2547L105.459 20.5192C105.234 20.8971 105.009 21.1994 104.709 21.5018C104.446 21.8041 104.108 22.0308 103.771 22.2575C103.095 22.6732 102.233 22.8621 101.107 22.8621C100.769 22.8621 100.432 22.8244 100.132 22.7488C99.8315 22.6732 99.5313 22.5976 99.2312 22.4843C98.9311 22.3709 98.6684 22.2197 98.4433 22.0308C98.1807 21.8418 97.9931 21.6529 97.7681 21.464C97.5805 21.2372 97.3929 21.0105 97.2428 20.746C97.0928 20.4815 96.9427 20.2169 96.8301 19.9146C96.7176 19.6123 96.6426 19.31 96.5675 19.0077C96.53 18.7054 96.4925 18.3653 96.4925 18.0252C96.4925 17.6851 96.53 17.345 96.5675 17.0427C96.605 16.7404 96.7176 16.4381 96.8301 16.1358C96.9427 15.8335 97.0928 15.5689 97.2428 15.3044C97.3929 15.0399 97.5805 14.8132 97.7681 14.6242C97.9556 14.4353 98.1807 14.2463 98.4433 14.0574C98.706 13.8684 98.9686 13.7173 99.2312 13.6039C99.4938 13.4906 99.7939 13.3772 100.132 13.3394C100.432 13.2638 100.769 13.226 101.107 13.226C102.195 13.226 103.133 13.4528 103.771 13.8684C104.108 14.0952 104.408 14.3219 104.709 14.6242C104.971 14.9265 105.234 15.2288 105.459 15.6067L105.571 15.9468ZM92.028 13.6039C91.878 13.4528 91.7279 13.3016 91.5778 13.1882C91.2402 12.8481 90.8275 12.5836 90.4148 12.3569C89.9646 12.0924 89.4769 11.9412 88.9517 11.8279C88.4264 11.7145 87.8637 11.6389 87.2634 11.6389C86.8132 11.6389 86.363 11.6767 85.9503 11.7523C85.5377 11.8279 85.125 11.979 84.7498 12.1302C84.3746 12.2813 83.9995 12.508 83.6618 12.7348C83.3242 12.9615 82.9865 13.226 82.7239 13.5283C82.4613 13.8307 82.1987 14.133 81.9736 14.4731C81.7485 14.8132 81.5609 15.191 81.3733 15.5689C81.2233 15.9468 81.1107 16.3625 80.9982 16.7782C80.9231 17.1938 80.8856 17.6473 80.8856 18.1008C80.8856 18.5542 80.9231 19.0077 80.9982 19.4234C81.0732 19.8391 81.1857 20.2547 81.3733 20.6704C81.5609 21.0483 81.7485 21.4262 81.9736 21.7663C82.1987 22.1064 82.4613 22.4465 82.7239 22.711C82.9865 22.9755 83.3242 23.24 83.6618 23.5046C83.9995 23.7313 84.3746 23.9202 84.7498 24.1092C85.125 24.2981 85.5377 24.4115 85.9503 24.4871C86.363 24.5626 86.8132 24.6004 87.2634 24.6004C87.8637 24.6004 88.4264 24.5248 88.9517 24.4115C89.4769 24.2981 89.9646 24.1092 90.4148 23.8446C91.0526 23.5045 91.5778 23.0511 92.028 22.5598V24.4115H93.7538V11.8279H92.028V13.6039ZM86.363 13.3772C86.7007 13.3394 87.0008 13.3016 87.3385 13.3016C87.6761 13.3016 88.0138 13.3394 88.3139 13.3772C88.614 13.4528 88.9142 13.5283 89.2143 13.6417C89.5144 13.7551 89.777 13.9062 90.0396 14.0952C90.3023 14.2463 90.5274 14.4353 90.7149 14.662C90.94 14.8887 91.0901 15.1155 91.2777 15.38C91.4278 15.6445 91.5778 15.909 91.6904 16.2113C91.8029 16.5136 91.9155 16.816 91.953 17.1183C91.9905 17.4206 92.0655 17.7607 92.0655 18.1008C92.0655 18.4409 92.028 18.781 91.953 19.0833C91.878 19.3856 91.8029 19.6879 91.6904 19.9902C91.5778 20.2925 91.4278 20.557 91.2402 20.8216C91.0526 21.0861 90.9025 21.3128 90.6774 21.5395C90.2647 21.993 89.7395 22.2953 89.1768 22.5598C88.8766 22.6732 88.5765 22.7866 88.2764 22.8244C87.9762 22.8999 87.6386 22.9377 87.3009 22.9377C86.9633 22.9377 86.6256 22.8999 86.3255 22.8244C85.9879 22.7866 85.7252 22.6732 85.4251 22.5598C84.8624 22.2953 84.3371 21.993 83.9245 21.5395C83.7369 21.3128 83.5493 21.0861 83.3617 20.8216C83.1741 20.557 83.0616 20.2925 82.9115 19.9902C82.799 19.6879 82.6864 19.3856 82.6489 19.0833C82.5739 18.781 82.5363 18.4409 82.5363 18.1008C82.5363 17.7607 82.5739 17.4206 82.6489 17.1183C82.6864 16.7782 82.799 16.5136 82.9115 16.2113C83.0241 15.909 83.1741 15.6445 83.3617 15.38C83.5118 15.1155 83.6994 14.8887 83.9245 14.662C84.1496 14.4353 84.3747 14.2463 84.5998 14.0952C84.8624 13.9062 85.125 13.7551 85.4251 13.6417C85.7628 13.5283 86.0629 13.4528 86.363 13.3772ZM78.8222 14.0952C79.0098 13.944 79.2349 13.8307 79.46 13.7551C79.6851 13.6795 79.9102 13.5661 80.1728 13.5283C80.4354 13.4906 80.698 13.4528 80.9606 13.4528H81.2233V11.6011H80.9606C80.3604 11.6011 79.8352 11.6767 79.3474 11.8656C79.1223 11.9412 78.8972 12.0546 78.7097 12.168C78.4846 12.2813 78.297 12.3947 78.1469 12.5458C77.9593 12.6592 77.8093 12.8104 77.6592 12.9615C77.5091 13.1127 77.3966 13.226 77.284 13.415L77.2465 13.4528V11.8279H75.5208V24.4115H77.2465V17.5717C77.2465 17.2694 77.284 16.9671 77.3215 16.6648C77.3591 16.4003 77.4341 16.1358 77.5466 15.8712C77.6217 15.6067 77.7342 15.38 77.8843 15.191C78.0344 14.9643 78.1844 14.7754 78.3345 14.5864C78.447 14.3975 78.6346 14.2463 78.8222 14.0952ZM73.6074 15.2288C73.9075 14.5486 74.0576 13.7929 74.0576 12.9615C74.0576 12.5836 74.0201 12.2057 73.9451 11.8279C73.87 11.45 73.7575 11.1099 73.6074 10.7698C73.4573 10.4297 73.3073 10.0896 73.0822 9.78726C72.8946 9.48496 72.632 9.22044 72.3694 8.95591C72.1067 8.69139 71.8441 8.50245 71.5065 8.27572C71.2064 8.08678 70.8687 7.89783 70.4935 7.74668C69.7807 7.44437 68.9554 7.29321 68.13 7.29321H62.2024V24.3737H64.0032V18.6298H67.8674C68.3176 18.6298 68.7678 18.592 69.218 18.5164C69.6682 18.4409 70.0433 18.3275 70.456 18.1763C70.8687 18.0252 71.2064 17.874 71.5065 17.6473C71.8441 17.4584 72.1068 17.2316 72.4069 16.9671C72.6695 16.7026 72.8946 16.4381 73.1197 16.1358C73.2698 15.909 73.4573 15.5689 73.6074 15.2288ZM72.2193 12.9615C72.2193 13.226 72.1818 13.5283 72.1443 13.7929C72.1068 14.0574 72.0317 14.2841 71.9192 14.5486C71.8066 14.7754 71.6941 15.0021 71.5815 15.2288C71.4315 15.4178 71.2814 15.6067 71.1313 15.7957C70.9437 15.9846 70.7562 16.1358 70.5311 16.2491C70.306 16.4003 70.0809 16.5136 69.8182 16.627C69.5556 16.7404 69.293 16.816 68.9929 16.8537C68.6927 16.8915 68.3926 16.9293 68.055 16.9293H64.0407V9.06928H67.7924C68.1675 9.06928 68.5052 9.10707 68.8428 9.14486C69.1805 9.18265 69.4806 9.25822 69.7432 9.37159C70.0058 9.48496 70.2684 9.59832 70.4935 9.74948C70.7186 9.90063 70.9437 10.0518 71.0938 10.2029C71.2814 10.3919 71.4315 10.5808 71.5815 10.7698C71.7316 10.9587 71.8441 11.1854 71.9192 11.4122C72.0317 11.6389 72.1068 11.8656 72.1443 12.1302C72.1818 12.4325 72.2193 12.6592 72.2193 12.9615ZM114.388 7.331V8.88034V9.14486H116.076V7.331H114.388Z" fill="#30609A"/>
<path fill-rule="evenodd" clip-rule="evenodd" d="M17.1826 28.3793H11.8177V17.9118H16.8449C17.3327 17.9118 17.8204 17.9496 18.233 18.0252C18.6457 18.1008 19.0584 18.2141 19.4336 18.3275C19.8087 18.4786 20.1464 18.6298 20.4465 18.8187C20.7467 19.0077 21.0468 19.1966 21.2719 19.4612C21.497 19.7257 21.7221 19.9524 21.9097 20.2169C22.5099 21.0861 22.7725 22.0686 22.7725 23.1267C22.7725 23.5045 22.735 23.8824 22.66 24.2225C22.585 24.5626 22.5099 24.9027 22.3599 25.2428C22.2473 25.5829 22.0597 25.8474 21.8721 26.1497C21.6846 26.4143 21.497 26.6788 21.2344 26.9055C20.9718 27.1323 20.7467 27.359 20.4465 27.5101C20.1464 27.6991 19.8463 27.8502 19.4711 28.0014C19.1334 28.1148 18.7583 28.2281 18.3831 28.3037C18.0455 28.3793 17.5953 28.3793 17.1826 28.3793ZM24.4233 26.0742C24.6109 25.6207 24.7609 25.1672 24.836 24.676C24.911 24.1847 24.986 23.6935 24.986 23.1644C24.986 22.6732 24.9485 22.1819 24.836 21.6907C24.7234 21.1994 24.6109 20.746 24.4233 20.2925C24.2357 19.839 24.0106 19.4234 23.748 19.0455C23.4854 18.6676 23.1852 18.2897 22.8476 17.9874C22.5099 17.6473 22.1348 17.345 21.7221 17.0805C21.3094 16.8159 20.8967 16.5892 20.409 16.4003C19.9213 16.2113 19.4336 16.0602 18.9083 15.9468C18.3831 15.8334 17.8579 15.7957 17.2951 15.7957H9.60425V38.0532H11.8177V30.4954H16.9575C18.1955 30.4954 19.2835 30.3065 20.2965 29.9286C20.7842 29.7397 21.2719 29.5507 21.6846 29.2862C22.0972 29.0217 22.5099 28.7572 22.8476 28.4171C23.5229 27.7369 24.0481 26.9811 24.4233 26.0742Z" fill="#30609A"/>
<path fill-rule="evenodd" clip-rule="evenodd" d="M27.4246 15.8335V38.091H29.6005V28.0392H41.7184V38.091H43.9318V15.8335H41.7184V25.9608H29.6005V15.8335H27.4246Z" fill="#30609A"/>
<path fill-rule="evenodd" clip-rule="evenodd" d="M41.5308 49.3142H11.8552C9.75429 49.3142 7.87847 48.4073 6.52787 47.0091C5.62748 46.1022 4.0893 44.515 3.07635 43.0413C1.27556 40.3583 0.0375165 37.7509 0 36.655V44.8173C0 49.7299 4.01427 53.7733 8.89141 53.7733H36.316C37.4415 53.7355 40.4428 52.3751 43.0314 50.5234C44.4946 49.5031 45.9577 47.916 46.8581 47.0091C45.545 48.3695 43.5942 49.3142 41.5308 49.3142Z" fill="#29A3D2"/>
<path fill-rule="evenodd" clip-rule="evenodd" d="M6.45284 6.83975C7.35324 5.93282 8.89141 4.27012 10.3546 3.24983C12.9432 1.39818 15.982 0.0755773 17.1075 0H8.89141C4.01427 0 0 4.04339 0 8.95591V36.655C0.0375165 37.7887 1.27556 40.3583 3.07635 43.0413C4.0893 44.515 5.62748 46.1022 6.52787 47.0091C5.21479 45.6865 4.46446 43.8726 4.46446 41.8321V11.9412C4.46446 9.90063 5.13976 8.20014 6.45284 6.83975Z" fill="#30609A"/>
<path fill-rule="evenodd" clip-rule="evenodd" d="M11.8552 4.45906H41.5308C43.6317 4.45906 45.5075 5.36599 46.8581 6.76417C47.7585 7.6711 49.2967 9.25822 50.3097 10.732C52.1105 13.415 53.3485 15.9846 53.386 17.1183V8.95591C53.386 4.0056 49.3717 0 44.4946 0H17.1075C15.982 0.0377887 12.9807 1.39818 10.3921 3.24983C8.96646 4.27012 7.4658 5.85724 6.5654 6.76417C7.87848 5.40378 9.82934 4.45906 11.8552 4.45906Z" fill="#29A3D2"/>
<path fill-rule="evenodd" clip-rule="evenodd" d="M46.9331 47.1603C46.0327 48.0672 44.4946 49.7299 43.0314 50.7502C40.4428 52.6396 37.4039 53.9622 36.2784 54H44.4946C49.4092 54 53.386 49.9566 53.386 45.0441V17.345C53.3485 16.2113 52.1104 13.6417 50.3096 10.9587C49.2967 9.48496 47.7585 7.89783 46.8581 6.99091C48.1712 8.3513 48.9215 10.1652 48.9215 12.168V42.0588C48.959 44.0616 48.2462 45.7999 46.9331 47.1603Z" fill="#30609A"/>
</svg>
