<svg aria-hidden="true" style="position: absolute; width: 0; height: 0; overflow: hidden;" version="1.1" xmlns="http://www.w3.org/2000/svg" xmlns:xlink="http://www.w3.org/1999/xlink">
    <defs>
        <symbol id="icon-arrow-left" viewBox="0 0 32 32">
            <path fill="#30609a" style="fill: var(--iconColor, #30609a)" d="M31.333 17.917v-3.833h-23l7.667-7.667-1.917-3.833-13.417 13.417 13.417 13.417 1.917-3.833-7.667-7.667h23z"></path>
        </symbol>
        <symbol id="icon-arrow-right" viewBox="0 0 32 32">
            <path fill="#30609a" style="fill: var(--iconColor, #30609a)" d="M0.666 17.917v-3.833h23l-7.667-7.667 1.917-3.833 13.417 13.417-13.417 13.417-1.917-3.833 7.667-7.667h-23z"></path>
        </symbol>
        <symbol id="icon-car" viewBox="0 0 32 32">
            <path d="M8.667 25.333h-2.667c-0.368 0-0.667-0.299-0.667-0.667s0.299-0.667 0.667-0.667h2.667c0.368 0 0.667 0.299 0.667 0.667s-0.299 0.667-0.667 0.667z"></path>
            <path d="M30.333 25.332h-1.667c-0.368 0-0.667-0.299-0.667-0.667s0.299-0.667 0.667-0.667h1.113l0.899-4.789c-0.012-2.451-2.105-4.544-4.679-4.544h-4.377l-2.121 9.333h3.832c0.368 0 0.667 0.299 0.667 0.667s-0.299 0.667-0.667 0.667h-4.667c-0.203 0-0.395-0.092-0.521-0.251-0.127-0.157-0.175-0.365-0.129-0.563l2.424-10.667c0.069-0.305 0.339-0.52 0.651-0.52h4.909c3.308 0 6 2.692 6 6l-1.012 5.456c-0.059 0.316-0.333 0.544-0.655 0.544z"></path>
            <path d="M26 27.999c-1.837 0-3.333-1.495-3.333-3.333s1.496-3.333 3.333-3.333c1.837 0 3.333 1.495 3.333 3.333s-1.496 3.333-3.333 3.333zM26 22.665c-1.103 0-2 0.897-2 2s0.897 2 2 2c1.103 0 2-0.897 2-2s-0.897-2-2-2z"></path>
            <path d="M11.333 27.999c-1.837 0-3.333-1.495-3.333-3.333s1.496-3.333 3.333-3.333c1.837 0 3.333 1.495 3.333 3.333s-1.496 3.333-3.333 3.333zM11.333 22.665c-1.103 0-2 0.897-2 2s0.897 2 2 2c1.103 0 2-0.897 2-2s-0.897-2-2-2z"></path>
            <path d="M8.667 13.333h-5.333c-0.368 0-0.667-0.299-0.667-0.667s0.299-0.667 0.667-0.667h5.333c0.368 0 0.667 0.299 0.667 0.667s-0.299 0.667-0.667 0.667z"></path>
            <path d="M8.667 17.333h-6.667c-0.368 0-0.667-0.299-0.667-0.667s0.299-0.667 0.667-0.667h6.667c0.368 0 0.667 0.299 0.667 0.667s-0.299 0.667-0.667 0.667z"></path>
            <path d="M8.667 21.333h-8c-0.368 0-0.667-0.299-0.667-0.667s0.299-0.667 0.667-0.667h8c0.368 0 0.667 0.299 0.667 0.667s-0.299 0.667-0.667 0.667z"></path>
            <path d="M18.667 25.332h-4.667c-0.368 0-0.667-0.299-0.667-0.667s0.299-0.667 0.667-0.667h4.135l3.029-13.333h-15.164c-0.368 0-0.667-0.299-0.667-0.667s0.299-0.667 0.667-0.667h16c0.203 0 0.395 0.092 0.521 0.251 0.127 0.157 0.175 0.365 0.129 0.563l-3.333 14.667c-0.069 0.305-0.34 0.52-0.651 0.52z"></path>
        </symbol>
        <symbol id="icon-chevron-right-white" viewBox="0 0 32 32">
            <path fill="#fff" style="fill: var(--iconColor, #fff)" d="M10.343 30.269l14.795-14.795-14.795-14.795-3.481 3.481 11.314 11.314-11.314 11.314 3.481 3.481z"></path>
        </symbol>
        <symbol id="icon-clock" viewBox="0 0 32 32">
            <path d="M16 0c-8.822 0-16 7.178-16 16s7.178 16 16 16c8.822 0 16-7.178 16-16s-7.178-16-16-16zM16 28.8c-7.058 0-12.8-5.742-12.8-12.8s5.742-12.8 12.8-12.8c7.058 0 12.8 5.742 12.8 12.8s-5.742 12.8-12.8 12.8z"></path>
            <path d="M17.6 8h-3.2v9.6h9.6v-3.2h-6.4v-6.4z"></path>
        </symbol>
        <symbol id="icon-close" viewBox="0 0 32 32">
            <path d="M32 1.885l-1.885-1.885-14.115 14.115-14.115-14.115-1.885 1.885 14.115 14.115-14.115 14.115 1.885 1.885 14.115-14.115 14.115 14.115 1.885-1.885-14.115-14.115z"></path>
        </symbol>
        <symbol id="icon-credit-cards" viewBox="0 0 32 32">
            <path d="M29.502 7.296c-0.363-0.429-0.871-0.691-1.431-0.738l-19.718-1.646c-0.56-0.047-1.104 0.127-1.533 0.49-0.427 0.361-0.689 0.867-0.737 1.424l-0.397 3.722h-1.584c-1.16 0-2.103 0.943-2.103 2.103v12.343c0 1.16 0.943 2.103 2.103 2.103h19.787c1.16 0 2.103-0.943 2.103-2.103v-2.002l0.702 0.059c0.059 0.005 0.118 0.007 0.177 0.007 1.081 0 2.003-0.832 2.094-1.928l1.027-12.3c0.047-0.56-0.127-1.104-0.49-1.533zM4.103 11.641h19.787c0.556 0 1.009 0.453 1.009 1.009v1.125h-21.805v-1.125c0-0.556 0.453-1.009 1.009-1.009zM3.094 14.869h21.805v2.269h-21.805v-2.269zM23.89 26.003h-19.787c-0.556 0-1.009-0.453-1.009-1.009v-6.762h21.805v6.762c0 0.556-0.453 1.009-1.009 1.009zM28.903 8.738l-1.027 12.3c-0.046 0.555-0.535 0.968-1.090 0.922l-0.793-0.066v-9.243c0-1.16-0.943-2.103-2.103-2.103h-17.103l0.385-3.612c0-0.004 0.001-0.008 0.001-0.012 0.046-0.555 0.535-0.968 1.090-0.922l19.718 1.646c0.269 0.022 0.512 0.148 0.687 0.354s0.258 0.467 0.235 0.736z"></path>
            <path d="M22.61 19.857h-5.263c-0.302 0-0.547 0.245-0.547 0.547v3.434c0 0.302 0.245 0.547 0.547 0.547h5.263c0.302 0 0.547-0.245 0.547-0.547v-3.434c0-0.302-0.245-0.547-0.547-0.547zM22.064 23.291h-4.169v-2.34h4.169v2.34z"></path>
        </symbol>
        <symbol id="icon-mail" viewBox="0 0 32 32">
            <path d="M0 6.4v19.2c0 1.767 1.433 3.2 3.2 3.2h25.6c1.767 0 3.2-1.433 3.2-3.2v-19.2c0-1.767-1.433-3.2-3.2-3.2h-25.6c-1.767 0-3.2 1.433-3.2 3.2zM28.8 9.39v16.21h-25.6v-16.21l12.8 8.533 12.8-8.533zM27.516 6.4l-11.516 7.677-11.516-7.677h23.031z"></path>
        </symbol>
        <symbol id="icon-phone" viewBox="0 0 32 32">
            <path d="M25.131 16.468c-0.626-0.626-1.637-0.626-2.262 0l-2.55 2.55c-1.182-0.352-3.389-1.152-4.787-2.55s-2.198-3.605-2.55-4.787l2.55-2.55c0.626-0.626 0.626-1.637 0-2.262l-6.4-6.4c-0.626-0.626-1.637-0.626-2.262 0l-4.339 4.339c-0.608 0.608-0.95 1.443-0.938 2.296 0.037 2.278 0.64 10.192 6.877 16.429s14.15 6.838 16.43 6.877c0.008 0 0.037 0 0.045 0 0.845 0 1.643-0.333 2.248-0.938l4.339-4.339c0.626-0.626 0.626-1.637 0-2.262l-6.4-6.402zM24.928 27.208c-1.997-0.034-8.829-0.57-14.197-5.939-5.386-5.386-5.907-12.242-5.939-14.198l3.208-3.208 4.138 4.138-2.069 2.069c-0.382 0.381-0.546 0.931-0.435 1.459 0.038 0.184 0.978 4.547 3.634 7.203s7.019 3.595 7.203 3.634c0.533 0.114 1.078-0.051 1.459-0.434l2.070-2.069 4.138 4.138-3.21 3.208z"></path>
        </symbol>
        <symbol id="icon-search" viewBox="0 0 32 32">
            <path d="M30.934 28.351l-7.399-7.463c1.918-2.18 2.946-4.954 2.946-7.794 0-6.671-5.686-12.153-12.605-12.153s-12.605 5.482-12.605 12.153c0 6.671 5.686 12.153 12.605 12.153 2.603 0 5.070-0.727 7.193-2.18l7.467 7.529c0.342 0.33 0.753 0.462 1.165 0.462s0.822-0.132 1.165-0.462c0.685-0.594 0.685-1.585 0.069-2.246zM13.875 4.111c5.138 0 9.317 4.029 9.317 8.982s-4.179 8.982-9.317 8.982c-5.138 0-9.317-4.029-9.317-8.982s4.179-8.982 9.317-8.982z"></path>
        </symbol>
        <symbol id="icon-shopping-cart" viewBox="0 0 32 32">
            <path stroke-linejoin="miter" stroke-linecap="butt" stroke-miterlimit="4" stroke-width="1.3333" d="M6.683 6.89l-0.615-3.607c-0.254-1.51-1.569-2.619-3.112-2.616h-2.19c-0.057 0-0.098 0.045-0.098 0.095s0.041 0.095 0.098 0.095h2.188v0.667c1.12-0.002 2.078 0.803 2.263 1.903l1.466 3.463zM6.683 6.89h0.563M6.683 6.89h0.563M7.245 6.89h23.99c0.033 0 0.062 0.016 0.080 0.040s0.023 0.055 0.014 0.083l-2.384 7.4c-0.517 1.616-2.027 2.715-3.734 2.711h-16.783M7.245 6.89l1.182 10.234M8.427 17.124l0.133 0.779M8.427 17.124l0.133 0.779M8.56 17.902l0.278 1.633c0 0 0 0 0 0.001l-0.278-1.633zM11.642 31.143h0.001c1.466-0.002 2.658-1.185 2.66-2.651v-0.001c0-1.467-1.194-2.652-2.66-2.652s-2.66 1.185-2.661 2.652v0c0 1.467 1.194 2.652 2.66 2.652zM25.511 31.143h0.001c1.465-0.002 2.658-1.185 2.66-2.651v-0.001c0-1.467-1.194-2.652-2.66-2.652s-2.66 1.185-2.66 2.652c0 1.467 1.193 2.652 2.66 2.652zM5.874 3.317c-0-0-0-0-0-0.001l5.884 18.012v0.667h16.309c0.057 0 0.098 0.045 0.098 0.095s-0.041 0.095-0.098 0.095h-16.311c-1.543 0.004-2.859-1.105-3.113-2.616l-0-0.001-2.77-16.251zM8.3 16.379l0.095 0.555h16.812l0.001-0.667v0.667h-0.001c1.619 0.003 3.057-1.039 3.55-2.579 0-0 0-0 0-0.001l2.344-7.273h-24.386l1.585 9.298zM11.642 31.333c-1.581 0-2.857-1.275-2.857-2.842l5.715 0.001c-0 1.567-1.277 2.842-2.857 2.842zM8.785 28.491c0-1.567 1.276-2.842 2.856-2.843l-2.856 2.843zM11.642 25.648c1.58 0.002 2.856 1.276 2.858 2.843l-2.858-2.843zM22.654 28.491c0-1.567 1.276-2.842 2.856-2.843l2.858 2.843c-0.001 1.567-1.277 2.842-2.857 2.842s-2.857-1.275-2.857-2.843zM25.51 25.648c1.58 0.002 2.856 1.276 2.858 2.843l-2.858-2.843z"></path>
        </symbol>
    </defs>
</svg>
