<svg aria-hidden="true" style="position: absolute; width: 0; height: 0; overflow: hidden;" version="1.1" xmlns="http://www.w3.org/2000/svg" xmlns:xlink="http://www.w3.org/1999/xlink">
    <defs>
        <symbol id="icon-info" viewBox="0 0 32 32">
            <path d="M15.8 23.745c-0.619 0-1.12-0.501-1.12-1.12v-8.568c0-0.618 0.502-1.12 1.12-1.12s1.12 0.502 1.12 1.12v8.568c0 0.619-0.501 1.12-1.12 1.12zM15.8 8.513c-0.773 0-1.4 0.627-1.4 1.4s0.627 1.4 1.4 1.4c0.773 0 1.4-0.627 1.4-1.4s-0.627-1.4-1.4-1.4z"></path>
            <path fill="none" stroke="#343434" style="stroke: var(--iconColor, #343434)" stroke-linejoin="miter" stroke-linecap="butt" stroke-miterlimit="4" stroke-width="2.2857" d="M16 1.143c8.205 0 14.857 6.652 14.857 14.857s-6.652 14.857-14.857 14.857c-8.205 0-14.857-6.652-14.857-14.857s6.652-14.857 14.857-14.857z"></path>
        </symbol>
        <symbol id="icon-pointer" viewBox="0 0 32 32">
            <path d="M16 0c-6.618 0-12 5.409-12 12.062 0 1.908 0.569 4.105 1.69 6.529 0.894 1.938 2.149 4.031 3.722 6.221 2.676 3.723 5.418 6.523 5.725 6.831 0.233 0.234 0.539 0.357 0.863 0.357s0.631-0.129 0.869-0.357c0.306-0.308 3.049-3.108 5.725-6.831 1.573-2.191 2.822-4.283 3.722-6.221 1.114-2.425 1.684-4.622 1.684-6.529 0-6.652-5.382-12.062-12-12.062zM16 2.462c5.265 0 9.551 4.308 9.551 9.6 0 6.018-7.084 14.24-9.551 16.923-2.467-2.683-9.551-10.905-9.551-16.923 0-5.292 4.286-9.6 9.551-9.6z"></path>
            <path d="M16 18.215c3.373 0 6.122-2.763 6.122-6.154s-2.749-6.154-6.122-6.154c-3.373 0-6.122 2.763-6.122 6.154s2.749 6.154 6.122 6.154zM16 8.369c2.027 0 3.673 1.655 3.673 3.692s-1.647 3.692-3.673 3.692-3.673-1.655-3.673-3.692c0-2.037 1.647-3.692 3.673-3.692z"></path>
        </symbol>
        <symbol id="icon-telegram" viewBox="0 0 33 32">
            <path fill="#000" style="fill: var(--iconColor, #000)" d="M16.346 32c8.837 0 16-7.163 16-16s-7.163-16-16-16c-8.837 0-16 7.163-16 16s7.163 16 16 16z"></path>
            <path fill="#c8daea" style="fill: var(--iconColor, #c8daea)" d="M13.413 23.335c-0.518 0-0.43-0.196-0.609-0.689l-1.524-5.016 11.733-6.961z"></path>
            <path fill="#a9c9dd" style="fill: var(--iconColor, #a9c9dd)" d="M13.413 23.333c0.4 0 0.577-0.183 0.8-0.4l2.133-2.074-2.661-1.605z"></path>
            <path fill="#000" style="fill: var(--iconColor, #000)" d="M13.685 19.256l6.448 4.764c0.736 0.406 1.267 0.196 1.45-0.683l2.625-12.368c0.269-1.077-0.411-1.566-1.115-1.247l-15.412 5.943c-1.052 0.422-1.046 1.009-0.192 1.27l3.955 1.235 9.156-5.777c0.432-0.262 0.829-0.121 0.503 0.168z"></path>
        </symbol>
        <symbol id="icon-viber" viewBox="0 0 31 32">
            <path fill="#7360f2" style="fill: var(--iconColor, #7360f2)" d="M26.921 3.121c-0.795-0.734-4.009-3.066-11.166-3.098 0 0-8.44-0.509-12.555 3.265-2.29 2.291-3.096 5.643-3.181 9.799s-0.195 11.944 7.313 14.056h0.007l-0.005 3.222c0 0-0.048 1.305 0.811 1.571 1.039 0.323 1.649-0.669 2.641-1.738 0.544-0.587 1.296-1.449 1.863-2.107 5.135 0.432 9.083-0.555 9.532-0.701 1.037-0.336 6.903-1.088 7.857-8.875 0.985-8.027-0.476-13.104-3.117-15.393zM27.791 17.938c-0.805 6.503-5.563 6.911-6.441 7.192-0.373 0.12-3.841 0.983-8.203 0.698 0 0-3.25 3.921-4.265 4.94-0.158 0.159-0.345 0.224-0.469 0.192-0.175-0.043-0.223-0.25-0.221-0.552 0.003-0.432 0.028-5.355 0.028-5.355s-0.004 0 0 0c-6.351-1.763-5.981-8.392-5.909-11.863s0.724-6.315 2.661-8.227c3.48-3.152 10.65-2.681 10.65-2.681 6.055 0.026 8.956 1.85 9.628 2.46 2.234 1.913 3.372 6.489 2.54 13.194v0.002z"></path>
            <path fill="#7360f2" style="fill: var(--iconColor, #7360f2)" d="M15.878 10.384c0.012-0.223 0.202-0.395 0.425-0.383 0.835 0.043 1.53 0.296 2.025 0.808 0.493 0.51 0.735 1.222 0.777 2.077 0.011 0.223-0.161 0.413-0.384 0.424s-0.413-0.161-0.424-0.384c-0.036-0.732-0.237-1.231-0.55-1.555-0.311-0.322-0.787-0.526-1.485-0.563-0.223-0.012-0.395-0.202-0.383-0.425z"></path>
            <path fill="#7360f2" style="fill: var(--iconColor, #7360f2)" d="M15.264 8.203c0.016-0.223 0.21-0.39 0.433-0.374 1.7 0.124 3.068 0.705 4.065 1.793l0 0c0.986 1.077 1.454 2.417 1.42 3.989-0.005 0.223-0.19 0.401-0.413 0.396s-0.401-0.19-0.396-0.413c0.030-1.386-0.378-2.517-1.208-3.425-0.828-0.904-1.985-1.42-3.527-1.532-0.223-0.016-0.39-0.21-0.374-0.433z"></path>
            <path fill="#7360f2" style="fill: var(--iconColor, #7360f2)" d="M14.55 6.129c0.002-0.224 0.184-0.404 0.408-0.402 2.349 0.016 4.335 0.798 5.929 2.353 1.608 1.567 2.402 3.701 2.423 6.35 0.002 0.223-0.178 0.406-0.402 0.408s-0.406-0.178-0.408-0.402c-0.019-2.483-0.758-4.392-2.178-5.777-1.434-1.398-3.215-2.108-5.37-2.123-0.224-0.002-0.403-0.184-0.402-0.408z"></path>
            <path fill="#7360f2" style="fill: var(--iconColor, #7360f2)" d="M16.362 18.329c0 0 0.569 0.048 0.875-0.329l0.597-0.752c0.288-0.373 0.983-0.61 1.664-0.231 0.51 0.291 1.006 0.607 1.484 0.948 0.452 0.332 1.377 1.104 1.38 1.104 0.441 0.372 0.543 0.919 0.242 1.495 0 0.003-0.002 0.009-0.002 0.012-0.331 0.573-0.75 1.090-1.243 1.531-0.006 0.003-0.006 0.006-0.011 0.009-0.428 0.358-0.849 0.561-1.262 0.61-0.061 0.011-0.123 0.015-0.184 0.012-0.182 0.002-0.364-0.026-0.537-0.083l-0.014-0.020c-0.637-0.18-1.7-0.629-3.47-1.606-1.024-0.558-2-1.203-2.916-1.926-0.459-0.362-0.897-0.751-1.311-1.163l-0.133-0.133c-0.015-0.014-0.029-0.029-0.044-0.044-0.412-0.415-0.801-0.852-1.163-1.311-0.723-0.916-1.367-1.891-1.926-2.915-0.977-1.771-1.426-2.833-1.606-3.471l-0.020-0.014c-0.056-0.173-0.084-0.355-0.082-0.537-0.003-0.062 0-0.124 0.011-0.184 0.052-0.413 0.255-0.834 0.611-1.263 0.003-0.005 0.006-0.005 0.009-0.011 0.441-0.493 0.958-0.912 1.531-1.243 0.003 0 0.009-0.003 0.012-0.003 0.576-0.3 1.123-0.198 1.494 0.24 0.003 0.003 0.774 0.928 1.104 1.38 0.341 0.479 0.657 0.975 0.948 1.486 0.379 0.68 0.142 1.377-0.231 1.664l-0.752 0.597c-0.379 0.306-0.329 0.875-0.329 0.875s1.113 4.213 5.272 5.274z"></path>
        </symbol>
        <symbol id="icon-arrow-left" viewBox="0 0 32 32">
            <path fill="#30609a" style="fill: var(--iconColor, #30609a)" d="M31.333 17.917v-3.833h-23l7.667-7.667-1.917-3.833-13.417 13.417 13.417 13.417 1.917-3.833-7.667-7.667h23z"></path>
        </symbol>
        <symbol id="icon-arrow-right" viewBox="0 0 32 32">
            <path fill="#30609a" style="fill: var(--iconColor, #30609a)" d="M0.666 17.917v-3.833h23l-7.667-7.667 1.917-3.833 13.417 13.417-13.417 13.417-1.917-3.833 7.667-7.667h-23z"></path>
        </symbol>
        <symbol id="icon-car" viewBox="0 0 32 32">
            <path d="M8.667 25.333h-2.667c-0.368 0-0.667-0.299-0.667-0.667s0.299-0.667 0.667-0.667h2.667c0.368 0 0.667 0.299 0.667 0.667s-0.299 0.667-0.667 0.667z"></path>
            <path d="M30.333 25.332h-1.667c-0.368 0-0.667-0.299-0.667-0.667s0.299-0.667 0.667-0.667h1.113l0.899-4.789c-0.012-2.451-2.105-4.544-4.679-4.544h-4.377l-2.121 9.333h3.832c0.368 0 0.667 0.299 0.667 0.667s-0.299 0.667-0.667 0.667h-4.667c-0.203 0-0.395-0.092-0.521-0.251-0.127-0.157-0.175-0.365-0.129-0.563l2.424-10.667c0.069-0.305 0.339-0.52 0.651-0.52h4.909c3.308 0 6 2.692 6 6l-1.012 5.456c-0.059 0.316-0.333 0.544-0.655 0.544z"></path>
            <path d="M26 27.999c-1.837 0-3.333-1.495-3.333-3.333s1.496-3.333 3.333-3.333c1.837 0 3.333 1.495 3.333 3.333s-1.496 3.333-3.333 3.333zM26 22.665c-1.103 0-2 0.897-2 2s0.897 2 2 2c1.103 0 2-0.897 2-2s-0.897-2-2-2z"></path>
            <path d="M11.333 27.999c-1.837 0-3.333-1.495-3.333-3.333s1.496-3.333 3.333-3.333c1.837 0 3.333 1.495 3.333 3.333s-1.496 3.333-3.333 3.333zM11.333 22.665c-1.103 0-2 0.897-2 2s0.897 2 2 2c1.103 0 2-0.897 2-2s-0.897-2-2-2z"></path>
            <path d="M8.667 13.333h-5.333c-0.368 0-0.667-0.299-0.667-0.667s0.299-0.667 0.667-0.667h5.333c0.368 0 0.667 0.299 0.667 0.667s-0.299 0.667-0.667 0.667z"></path>
            <path d="M8.667 17.333h-6.667c-0.368 0-0.667-0.299-0.667-0.667s0.299-0.667 0.667-0.667h6.667c0.368 0 0.667 0.299 0.667 0.667s-0.299 0.667-0.667 0.667z"></path>
            <path d="M8.667 21.333h-8c-0.368 0-0.667-0.299-0.667-0.667s0.299-0.667 0.667-0.667h8c0.368 0 0.667 0.299 0.667 0.667s-0.299 0.667-0.667 0.667z"></path>
            <path d="M18.667 25.332h-4.667c-0.368 0-0.667-0.299-0.667-0.667s0.299-0.667 0.667-0.667h4.135l3.029-13.333h-15.164c-0.368 0-0.667-0.299-0.667-0.667s0.299-0.667 0.667-0.667h16c0.203 0 0.395 0.092 0.521 0.251 0.127 0.157 0.175 0.365 0.129 0.563l-3.333 14.667c-0.069 0.305-0.34 0.52-0.651 0.52z"></path>
        </symbol>
        <symbol id="icon-chevron-right-white" viewBox="0 0 32 32">
            <path fill="#fff" style="fill: var(--iconColor, #fff)" d="M10.343 30.269l14.795-14.795-14.795-14.795-3.481 3.481 11.314 11.314-11.314 11.314 3.481 3.481z"></path>
        </symbol>
        <symbol id="icon-clock" viewBox="0 0 32 32">
            <path d="M16 0c-8.822 0-16 7.178-16 16s7.178 16 16 16c8.822 0 16-7.178 16-16s-7.178-16-16-16zM16 28.8c-7.058 0-12.8-5.742-12.8-12.8s5.742-12.8 12.8-12.8c7.058 0 12.8 5.742 12.8 12.8s-5.742 12.8-12.8 12.8z"></path>
            <path d="M17.6 8h-3.2v9.6h9.6v-3.2h-6.4v-6.4z"></path>
        </symbol>
        <symbol id="icon-close" viewBox="0 0 32 32">
            <path d="M32 1.885l-1.885-1.885-14.115 14.115-14.115-14.115-1.885 1.885 14.115 14.115-14.115 14.115 1.885 1.885 14.115-14.115 14.115 14.115 1.885-1.885-14.115-14.115z"></path>
        </symbol>
        <symbol id="icon-close-light" viewBox="0 0 32 32">
            <path fill="#f2f5f8" style="fill: var(--iconColor, #f2f5f8)" d="M32 1.885l-1.885-1.885-14.115 14.115-14.115-14.115-1.885 1.885 14.115 14.115-14.115 14.115 1.885 1.885 14.115-14.115 14.115 14.115 1.885-1.885-14.115-14.115z"></path>
        </symbol>
        <symbol id="icon-credit-cards" viewBox="0 0 32 32">
            <path d="M29.502 7.296c-0.363-0.429-0.871-0.691-1.431-0.738l-19.718-1.646c-0.56-0.047-1.104 0.127-1.533 0.49-0.427 0.361-0.689 0.867-0.737 1.424l-0.397 3.722h-1.584c-1.16 0-2.103 0.943-2.103 2.103v12.343c0 1.16 0.943 2.103 2.103 2.103h19.787c1.16 0 2.103-0.943 2.103-2.103v-2.002l0.702 0.059c0.059 0.005 0.118 0.007 0.177 0.007 1.081 0 2.003-0.832 2.094-1.928l1.027-12.3c0.047-0.56-0.127-1.104-0.49-1.533zM4.103 11.641h19.787c0.556 0 1.009 0.453 1.009 1.009v1.125h-21.805v-1.125c0-0.556 0.453-1.009 1.009-1.009zM3.094 14.869h21.805v2.269h-21.805v-2.269zM23.89 26.003h-19.787c-0.556 0-1.009-0.453-1.009-1.009v-6.762h21.805v6.762c0 0.556-0.453 1.009-1.009 1.009zM28.903 8.738l-1.027 12.3c-0.046 0.555-0.535 0.968-1.090 0.922l-0.793-0.066v-9.243c0-1.16-0.943-2.103-2.103-2.103h-17.103l0.385-3.612c0-0.004 0.001-0.008 0.001-0.012 0.046-0.555 0.535-0.968 1.090-0.922l19.718 1.646c0.269 0.022 0.512 0.148 0.687 0.354s0.258 0.467 0.235 0.736z"></path>
            <path d="M22.61 19.857h-5.263c-0.302 0-0.547 0.245-0.547 0.547v3.434c0 0.302 0.245 0.547 0.547 0.547h5.263c0.302 0 0.547-0.245 0.547-0.547v-3.434c0-0.302-0.245-0.547-0.547-0.547zM22.064 23.291h-4.169v-2.34h4.169v2.34z"></path>
        </symbol>
        <symbol id="icon-docs" viewBox="0 0 32 32">
            <path d="M28.571 9.082h-3.654v-3.654c0-0.421-0.341-0.762-0.762-0.762h-19.393c-0.421 0-0.762 0.341-0.762 0.762v19.393c0 0.421 0.341 0.762 0.762 0.762h3.654v3.654c0 0.421 0.341 0.762 0.762 0.762h19.393c0.421 0 0.762-0.341 0.762-0.762v-19.393c0-0.421-0.341-0.762-0.762-0.762zM27.809 28.476h-17.87v-2.892h14.216c0.421 0 0.762-0.341 0.762-0.762v-14.216h2.892v17.87zM5.524 6.191h17.87v17.87h-17.87v-17.87z"></path>
            <path d="M9.163 11.547h1.513c1.010 0 1.006-1.524 0-1.524h-1.513c-1.006 0-1.010 1.524 0 1.524z"></path>
            <path d="M13.64 11.547h6.115c1.008 0 1.017-1.524 0-1.524h-6.115c-1.017 0-1.008 1.524 0 1.524z"></path>
            <path d="M9.163 15.887h1.513c1.007 0 1.009-1.524 0-1.524-0.522 0-0.965 0-1.497 0h-0.015c-1.011 0-1.017 1.524 0 1.524z"></path>
            <path d="M13.64 15.887h6.115c1.007 0 1.008-1.524 0-1.524h-6.115c-1.007 0-1.008 1.524 0 1.524z"></path>
            <path d="M9.163 20.227h1.513c1.008 0 1.007-1.524 0-1.524-0.522 0-0.965 0-1.497 0h-0.015c-1.004 0-1.022 1.524 0 1.524z"></path>
            <path d="M13.64 20.227h6.115c1.007 0 1.008-1.524 0-1.524h-6.115c-1.007 0-1.008 1.524 0 1.524z"></path>
        </symbol>
        <symbol id="icon-empty-box" viewBox="0 0 32 32">
            <path d="M28.442 11.538l3.375-3.375c0.139-0.139 0.205-0.335 0.177-0.53s-0.145-0.365-0.318-0.46l-4.057-2.228c-0.302-0.166-0.682-0.055-0.849 0.247s-0.056 0.683 0.247 0.849l3.327 1.827-2.896 2.896-10.417-5.72 2.896-2.896 2.928 1.608c0.302 0.166 0.683 0.056 0.849-0.247s0.056-0.683-0.247-0.849l-3.339-1.833c-0.244-0.134-0.546-0.091-0.743 0.106l-3.375 3.375-3.375-3.375c-0.197-0.197-0.499-0.24-0.743-0.106l-11.558 6.347c-0.172 0.095-0.29 0.265-0.318 0.46s0.038 0.391 0.177 0.53l3.375 3.375-3.375 3.374c-0.139 0.139-0.205 0.335-0.177 0.53s0.145 0.365 0.318 0.459l3.493 1.918v6.411c0 0.228 0.124 0.438 0.324 0.548l11.558 6.346c0.094 0.052 0.197 0.077 0.301 0.077s0.207-0.026 0.301-0.077l11.558-6.346c0.2-0.11 0.324-0.32 0.324-0.548v-6.411l3.493-1.918c0.172-0.095 0.29-0.265 0.318-0.46s-0.038-0.391-0.177-0.53zM16 17.172l-10.259-5.634 10.259-5.634 10.259 5.634zM12.073 2.149l2.896 2.896-10.417 5.72-2.896-2.896zM4.553 12.312l10.417 5.72-2.896 2.896-10.417-5.72zM26.933 23.862l-10.308 5.66v-6.389c0-0.345-0.28-0.625-0.625-0.625s-0.625 0.28-0.625 0.625v6.389l-10.308-5.66v-5.355l6.815 3.742c0.094 0.052 0.198 0.077 0.301 0.077 0.162 0 0.322-0.063 0.442-0.183l3.375-3.375 3.375 3.375c0.12 0.12 0.28 0.183 0.442 0.183 0.103 0 0.206-0.025 0.301-0.077l6.815-3.742zM19.927 20.928l-2.896-2.896 10.417-5.72 2.896 2.896z"></path>
            <path d="M25.3 5.011c0.164 0 0.325-0.067 0.442-0.183s0.183-0.277 0.183-0.442c0-0.165-0.067-0.326-0.183-0.442s-0.278-0.183-0.442-0.183c-0.165 0-0.326 0.067-0.442 0.183s-0.183 0.277-0.183 0.442c0 0.164 0.066 0.325 0.183 0.442s0.278 0.183 0.442 0.183z"></path>
            <path d="M16 20.433c-0.164 0-0.326 0.067-0.442 0.183s-0.183 0.277-0.183 0.442c0 0.165 0.067 0.325 0.183 0.442s0.278 0.183 0.442 0.183 0.326-0.066 0.442-0.183c0.116-0.117 0.183-0.278 0.183-0.442s-0.067-0.325-0.183-0.442c-0.116-0.116-0.278-0.183-0.442-0.183z"></path>
        </symbol>
        <symbol id="icon-empty-search" viewBox="0 0 32 32">
            <path d="M29.75 3h-27.5c-0.966 0.001-1.749 0.784-1.75 1.75v22.5c0.001 0.966 0.784 1.749 1.75 1.75h27.5c0.966-0.001 1.749-0.784 1.75-1.75v-22.5c-0.001-0.966-0.784-1.749-1.75-1.75h-0zM2.25 4h27.5c0.414 0 0.75 0.336 0.75 0.75v1.25h-29v-1.25c0-0.414 0.336-0.75 0.75-0.75h0zM29.75 28h-27.5c-0.414-0-0.75-0.336-0.75-0.75v-20.25h29v20.25c-0 0.414-0.336 0.75-0.75 0.75h-0z"></path>
            <path d="M2.5 5.5h0.5c0.276 0 0.5-0.224 0.5-0.5s-0.224-0.5-0.5-0.5v0h-0.5c-0.276 0-0.5 0.224-0.5 0.5s0.224 0.5 0.5 0.5v0z"></path>
            <path d="M4.5 5.5h0.5c0.276 0 0.5-0.224 0.5-0.5s-0.224-0.5-0.5-0.5v0h-0.5c-0.276 0-0.5 0.224-0.5 0.5s0.224 0.5 0.5 0.5v0z"></path>
            <path d="M6.5 5.5h0.5c0.276 0 0.5-0.224 0.5-0.5s-0.224-0.5-0.5-0.5v0h-0.5c-0.276 0-0.5 0.224-0.5 0.5s0.224 0.5 0.5 0.5v0z"></path>
            <path d="M8.5 12.5c-2.761 0-5 2.239-5 5s2.239 5 5 5c2.761 0 5-2.239 5-5v0c-0.003-2.76-2.24-4.997-5-5h-0zM8.5 21.5c-2.209 0-4-1.791-4-4s1.791-4 4-4c2.209 0 4 1.791 4 4v0c-0.003 2.208-1.792 3.997-4 4h-0z"></path>
            <path d="M10.354 15.646c-0.090-0.091-0.216-0.146-0.354-0.146s-0.263 0.056-0.354 0.146l-1.146 1.146-1.146-1.146c-0.090-0.091-0.215-0.146-0.354-0.146-0.276 0-0.5 0.224-0.5 0.5 0 0.138 0.056 0.263 0.146 0.354v0l1.146 1.146-1.146 1.146c-0.090 0.090-0.146 0.215-0.146 0.354 0 0.276 0.224 0.5 0.5 0.5 0.138 0 0.263-0.056 0.354-0.146l1.146-1.146 1.146 1.146c0.091 0.090 0.216 0.146 0.354 0.146 0.276 0 0.5-0.224 0.5-0.5 0-0.138-0.056-0.263-0.146-0.354l-1.146-1.146 1.146-1.146c0.091-0.090 0.146-0.215 0.146-0.354s-0.056-0.263-0.146-0.354v0z"></path>
            <path d="M28 14.5h-12c-0.276 0-0.5 0.224-0.5 0.5s0.224 0.5 0.5 0.5v0h12c0.276 0 0.5-0.224 0.5-0.5s-0.224-0.5-0.5-0.5v0z"></path>
            <path d="M16 17h4.5c0.276 0 0.5-0.224 0.5-0.5s-0.224-0.5-0.5-0.5v0h-4.5c-0.276 0-0.5 0.224-0.5 0.5s0.224 0.5 0.5 0.5v0z"></path>
            <path d="M28 17.5h-12c-0.276 0-0.5 0.224-0.5 0.5s0.224 0.5 0.5 0.5v0h12c0.276 0 0.5-0.224 0.5-0.5s-0.224-0.5-0.5-0.5v0z"></path>
            <path d="M22 19h-6c-0.276 0-0.5 0.224-0.5 0.5s0.224 0.5 0.5 0.5v0h6c0.276 0 0.5-0.224 0.5-0.5s-0.224-0.5-0.5-0.5v0z"></path>
            <path d="M24 19h-0.5c-0.276 0-0.5 0.224-0.5 0.5s0.224 0.5 0.5 0.5v0h0.5c0.276 0 0.5-0.224 0.5-0.5s-0.224-0.5-0.5-0.5v0z"></path>
            <path d="M28 16h-6c-0.276 0-0.5 0.224-0.5 0.5s0.224 0.5 0.5 0.5v0h6c0.276 0 0.5-0.224 0.5-0.5s-0.224-0.5-0.5-0.5v0z"></path>
        </symbol>
        <symbol id="icon-mail" viewBox="0 0 32 32">
            <path d="M0 6.4v19.2c0 1.767 1.433 3.2 3.2 3.2h25.6c1.767 0 3.2-1.433 3.2-3.2v-19.2c0-1.767-1.433-3.2-3.2-3.2h-25.6c-1.767 0-3.2 1.433-3.2 3.2zM28.8 9.39v16.21h-25.6v-16.21l12.8 8.533 12.8-8.533zM27.516 6.4l-11.516 7.677-11.516-7.677h23.031z"></path>
        </symbol>
        <symbol id="icon-phone" viewBox="0 0 32 32">
            <path d="M25.131 16.468c-0.626-0.626-1.637-0.626-2.262 0l-2.55 2.55c-1.182-0.352-3.389-1.152-4.787-2.55s-2.198-3.605-2.55-4.787l2.55-2.55c0.626-0.626 0.626-1.637 0-2.262l-6.4-6.4c-0.626-0.626-1.637-0.626-2.262 0l-4.339 4.339c-0.608 0.608-0.95 1.443-0.938 2.296 0.037 2.278 0.64 10.192 6.877 16.429s14.15 6.838 16.43 6.877c0.008 0 0.037 0 0.045 0 0.845 0 1.643-0.333 2.248-0.938l4.339-4.339c0.626-0.626 0.626-1.637 0-2.262l-6.4-6.402zM24.928 27.208c-1.997-0.034-8.829-0.57-14.197-5.939-5.386-5.386-5.907-12.242-5.939-14.198l3.208-3.208 4.138 4.138-2.069 2.069c-0.382 0.381-0.546 0.931-0.435 1.459 0.038 0.184 0.978 4.547 3.634 7.203s7.019 3.595 7.203 3.634c0.533 0.114 1.078-0.051 1.459-0.434l2.070-2.069 4.138 4.138-3.21 3.208z"></path>
        </symbol>
        <symbol id="icon-search" viewBox="0 0 32 32">
            <path d="M30.934 28.351l-7.399-7.463c1.918-2.18 2.946-4.954 2.946-7.794 0-6.671-5.686-12.153-12.605-12.153s-12.605 5.482-12.605 12.153c0 6.671 5.686 12.153 12.605 12.153 2.603 0 5.070-0.727 7.193-2.18l7.467 7.529c0.342 0.33 0.753 0.462 1.165 0.462s0.822-0.132 1.165-0.462c0.685-0.594 0.685-1.585 0.069-2.246zM13.875 4.111c5.138 0 9.317 4.029 9.317 8.982s-4.179 8.982-9.317 8.982c-5.138 0-9.317-4.029-9.317-8.982s4.179-8.982 9.317-8.982z"></path>
        </symbol>
        <symbol id="icon-shopping-cart" viewBox="0 0 32 32">
            <path stroke-linejoin="miter" stroke-linecap="butt" stroke-miterlimit="4" stroke-width="1.3333" d="M6.683 6.89l-0.615-3.607c-0.254-1.51-1.569-2.619-3.112-2.616h-2.19c-0.057 0-0.098 0.045-0.098 0.095s0.041 0.095 0.098 0.095h2.188v0.667c1.12-0.002 2.078 0.803 2.263 1.903l1.466 3.463zM6.683 6.89h0.563M6.683 6.89h0.563M7.245 6.89h23.99c0.033 0 0.062 0.016 0.080 0.040s0.023 0.055 0.014 0.083l-2.384 7.4c-0.517 1.616-2.027 2.715-3.734 2.711h-16.783M7.245 6.89l1.182 10.234M8.427 17.124l0.133 0.779M8.427 17.124l0.133 0.779M8.56 17.902l0.278 1.633c0 0 0 0 0 0.001l-0.278-1.633zM11.642 31.143h0.001c1.466-0.002 2.658-1.185 2.66-2.651v-0.001c0-1.467-1.194-2.652-2.66-2.652s-2.66 1.185-2.661 2.652v0c0 1.467 1.194 2.652 2.66 2.652zM25.511 31.143h0.001c1.465-0.002 2.658-1.185 2.66-2.651v-0.001c0-1.467-1.194-2.652-2.66-2.652s-2.66 1.185-2.66 2.652c0 1.467 1.193 2.652 2.66 2.652zM5.874 3.317c-0-0-0-0-0-0.001l5.884 18.012v0.667h16.309c0.057 0 0.098 0.045 0.098 0.095s-0.041 0.095-0.098 0.095h-16.311c-1.543 0.004-2.859-1.105-3.113-2.616l-0-0.001-2.77-16.251zM8.3 16.379l0.095 0.555h16.812l0.001-0.667v0.667h-0.001c1.619 0.003 3.057-1.039 3.55-2.579 0-0 0-0 0-0.001l2.344-7.273h-24.386l1.585 9.298zM11.642 31.333c-1.581 0-2.857-1.275-2.857-2.842l5.715 0.001c-0 1.567-1.277 2.842-2.857 2.842zM8.785 28.491c0-1.567 1.276-2.842 2.856-2.843l-2.856 2.843zM11.642 25.648c1.58 0.002 2.856 1.276 2.858 2.843l-2.858-2.843zM22.654 28.491c0-1.567 1.276-2.842 2.856-2.843l2.858 2.843c-0.001 1.567-1.277 2.842-2.857 2.842s-2.857-1.275-2.857-2.843zM25.51 25.648c1.58 0.002 2.856 1.276 2.858 2.843l-2.858-2.843z"></path>
        </symbol>
    </defs>
</svg>
