<?xml version="1.0" encoding="UTF-8" standalone="no"?>
<svg
   version="1.1"
   width="334.1239"
   height="142.3333"
   id="svg25"
   viewBox="0 0 334.1239 142.3333"
   sodipodi:docname="f2d14eb8da1ec9efa12a7c32235ede93.cdr"
   xmlns:inkscape="http://www.inkscape.org/namespaces/inkscape"
   xmlns:sodipodi="http://sodipodi.sourceforge.net/DTD/sodipodi-0.dtd"
   xmlns="http://www.w3.org/2000/svg"
   xmlns:svg="http://www.w3.org/2000/svg">
  <defs
     id="defs29" />
  <sodipodi:namedview
     id="namedview27"
     pagecolor="#ffffff"
     bordercolor="#666666"
     borderopacity="1.0"
     inkscape:pageshadow="2"
     inkscape:pageopacity="0.0"
     inkscape:pagecheckerboard="0" />
  <g
     id="Layer1000"
     transform="translate(-132.3859,-218.9814)">
    <path
       d="m 190.8097,288.0612 z m -12.6926,6.0707 h -14.2309 v -27.7064 h 13.3914 c 1.3163,0 2.5459,0.0909 3.6877,0.2723 1.1424,0.1814 2.2118,0.4537 3.2064,0.817 0.9924,0.3618 1.8998,0.7902 2.7213,1.2845 0.8133,0.4892 1.5439,1.0445 2.191,1.6657 0.6517,0.6249 1.2268,1.2993 1.7239,2.0216 1.56,2.269 2.2957,4.9054 2.2957,7.6664 0,0.9974 -0.0863,1.9542 -0.2589,2.8703 -0.1722,0.9153 -0.432,1.8006 -0.7796,2.6553 -0.347,0.8548 -0.7647,1.6487 -1.2554,2.3826 -0.4897,0.7348 -1.0532,1.4142 -1.6892,2.0373 -0.6351,0.6217 -1.3404,1.1778 -2.1153,1.668 -0.7791,0.4925 -1.6311,0.9203 -2.5565,1.2822 -0.9194,0.3595 -1.9053,0.6305 -2.9563,0.8114 -1.0546,0.1809 -2.1803,0.2718 -3.3753,0.2718 z m 19.3814,-6.1492 c 0.4948,-1.1931 0.8659,-2.4361 1.1123,-3.7289 0.2474,-1.2937 0.3707,-2.6331 0.3707,-4.0168 0,-1.3316 -0.1237,-2.6263 -0.3707,-3.884 -0.2473,-1.2596 -0.6184,-2.4785 -1.1123,-3.655 -0.4925,-1.1728 -1.0897,-2.2755 -1.7908,-3.3052 -0.6979,-1.0251 -1.4982,-1.9749 -2.401,-2.8482 -0.9,-0.8709 -1.8937,-1.6533 -2.9793,-2.3456 -1.0832,-0.6905 -2.2523,-1.2887 -3.5068,-1.7931 -1.2601,-0.5068 -2.5829,-0.8871 -3.968,-1.141 -1.3865,-0.2543 -2.8256,-0.3812 -4.3155,-0.3812 h -20.5288 v 58.9409 h 5.8779 v -20.1504 h 13.7274 c 3.2737,0 6.2383,-0.491 8.8931,-1.4723 1.3256,-0.4897 2.5519,-1.0726 3.6772,-1.7479 1.1252,-0.6748 2.1485,-1.4437 3.0697,-2.3068 1.8407,-1.7235 3.2558,-3.7783 4.2449,-6.1645 z"
       style="fill:#616266;fill-rule:evenodd"
       id="path2" />
    <path
       d="m 205.4459,260.8837 v 58.9409 h 5.8779 v -26.6153 h 32.2401 v 26.6153 h 5.8778 v -58.9409 h -5.8778 v 26.7833 h -32.2401 v -26.7833 z"
       style="fill:#616266;fill-rule:evenodd"
       id="path4" />
    <path
       d="m 243.0893,349.4537 h -79.0738 c -5.5555,0 -10.6434,-2.3711 -14.2441,-6.0951 -2.3757,-2.4417 -6.5206,-6.5857 -9.1843,-10.5178 -4.7879,-7.068 -8.1292,-13.9081 -8.2012,-16.8843 v 21.6357 c 0,13.0468 10.6747,23.7225 23.7224,23.7225 h 73.0596 c 2.9739,-0.1394 10.9812,-3.6658 17.9389,-8.6134 3.8305,-2.7233 7.6422,-7.0321 10.0377,-9.4738 -3.5901,3.6367 -8.5745,6.2262 -14.0552,6.2262 z"
       style="fill:#565659;fill-rule:evenodd"
       id="path6" />
    <path
       d="m 149.6071,237.1096 c 2.3872,-2.4302 6.5275,-6.7764 10.3982,-9.5282 6.9573,-4.9472 14.9964,-8.4606 17.9699,-8.6 h -21.8669 c -13.0477,0 -23.7224,10.6747 -23.7224,23.7224 v 73.2527 c 0.072,2.9762 3.4133,9.8163 8.2012,16.8843 2.6637,3.9321 6.8086,8.0761 9.1843,10.5178 -3.4438,-3.5619 -5.5245,-8.3577 -5.5245,-13.6736 v -79.074 c 0,-5.3755 1.8472,-9.9284 5.3602,-13.5014 z"
       style="fill:#398fcd;fill-rule:evenodd"
       id="path8" />
    <path
       d="m 257.4297,342.9367 c -2.3873,2.4302 -6.528,6.7763 -10.3983,9.5282 -6.9572,4.9467 -14.9964,8.7103 -17.9698,8.8497 l 21.8669,-0.2497 c 13.0467,-0.1491 23.7223,-10.6747 23.7223,-23.7224 v -73.2527 c -0.072,-2.9763 -3.4133,-9.8163 -8.2011,-16.8843 -2.6638,-3.9321 -6.8087,-8.0761 -9.1844,-10.5178 3.4438,3.5619 5.5246,8.3576 5.5246,13.6735 v 79.0741 c 0,5.3755 -1.8472,9.9284 -5.3602,13.5014 z"
       style="fill:#4c95cc;fill-rule:evenodd"
       id="path10" />
    <path
       d="m 164.009,230.8424 h 79.0738 c 5.5555,0 10.6434,2.371 14.2441,6.095 2.3757,2.4417 6.5206,6.5857 9.1843,10.5178 4.7878,7.0681 8.0678,13.9699 8.1398,16.9457 l 0.0613,-21.6971 c 0.037,-13.0468 -10.6751,-23.7224 -23.7223,-23.7224 h -73.0596 c -2.9739,0.1394 -10.9807,3.6658 -17.9389,8.6133 -3.8306,2.7238 -7.8015,6.8728 -10.197,9.3145 3.5901,-3.6367 8.7338,-6.0668 14.2145,-6.0668 z"
       style="fill:#616266;fill-rule:evenodd"
       id="path12" />
    <path
       d="m 190.8097,288.0612 z m -12.6926,6.0707 h -14.2309 v -27.7064 h 13.3914 c 1.3163,0 2.5459,0.0909 3.6877,0.2723 1.1424,0.1814 2.2118,0.4537 3.2064,0.817 0.9924,0.3618 1.8998,0.7902 2.7213,1.2845 0.8133,0.4892 1.5439,1.0445 2.191,1.6657 0.6517,0.6249 1.2268,1.2993 1.7239,2.0216 1.56,2.269 2.2957,4.9054 2.2957,7.6664 0,0.9974 -0.0863,1.9542 -0.2589,2.8703 -0.1722,0.9153 -0.432,1.8006 -0.7796,2.6553 -0.347,0.8548 -0.7647,1.6487 -1.2554,2.3826 -0.4897,0.7348 -1.0532,1.4142 -1.6892,2.0373 -0.6351,0.6217 -1.3404,1.1778 -2.1153,1.668 -0.7791,0.4925 -1.6311,0.9203 -2.5565,1.2822 -0.9194,0.3595 -1.9053,0.6305 -2.9563,0.8114 -1.0546,0.1809 -2.1803,0.2718 -3.3753,0.2718 z m 19.3814,-6.1492 c 0.4948,-1.1931 0.8659,-2.4361 1.1123,-3.7289 0.2474,-1.2937 0.3707,-2.6331 0.3707,-4.0168 0,-1.3316 -0.1237,-2.6263 -0.3707,-3.884 -0.2473,-1.2596 -0.6184,-2.4785 -1.1123,-3.655 -0.4925,-1.1728 -1.0897,-2.2755 -1.7908,-3.3052 -0.6979,-1.0251 -1.4982,-1.9749 -2.401,-2.8482 -0.9,-0.8709 -1.8937,-1.6533 -2.9793,-2.3456 -1.0832,-0.6905 -2.2523,-1.2887 -3.5068,-1.7931 -1.2601,-0.5068 -2.5829,-0.8871 -3.968,-1.141 -1.3865,-0.2543 -2.8256,-0.3812 -4.3155,-0.3812 h -20.5288 v 58.9409 h 5.8779 v -20.1504 h 13.7274 c 3.2737,0 6.2383,-0.491 8.8931,-1.4723 1.3256,-0.4897 2.5519,-1.0726 3.6772,-1.7479 1.1252,-0.6748 2.1485,-1.4437 3.0697,-2.3068 1.8407,-1.7235 3.2558,-3.7783 4.2449,-6.1645 z"
       style="fill:#565659;fill-rule:evenodd"
       id="path14" />
    <path
       d="m 205.4459,260.8837 v 58.9409 h 5.8779 v -26.6153 h 32.2401 v 26.6153 h 5.8778 v -58.9409 h -5.8778 v 26.7833 h -32.2401 v -26.7833 z"
       style="fill:#565659;fill-rule:evenodd"
       id="path16" />
    <path
       d="m 149.6071,237.1096 c 2.3872,-2.4302 6.5275,-6.7764 10.3982,-9.5282 6.9573,-4.9472 14.9964,-8.4606 17.9699,-8.6 h -21.8669 c -13.0477,0 -23.7224,10.6747 -23.7224,23.7224 v 73.2527 c 0.072,2.9762 3.4133,9.8163 8.2012,16.8843 2.6637,3.9321 6.8086,8.0761 9.1843,10.5178 -3.4438,-3.5619 -5.5245,-8.3577 -5.5245,-13.6736 v -79.074 c 0,-5.3755 1.8472,-9.9284 5.3602,-13.5014 z"
       style="fill:#4c95cc;fill-rule:evenodd"
       id="path18" />
    <path
       d="m 164.009,230.8424 h 79.0738 c 5.5555,0 10.6434,2.371 14.2441,6.095 2.3757,2.4417 6.5206,6.5857 9.1843,10.5178 4.7878,7.0681 8.0678,13.9699 8.1398,16.9457 l 0.0613,-21.6971 c 0.037,-13.0468 -10.6751,-23.7224 -23.7223,-23.7224 h -73.0596 c -2.9739,0.1394 -10.9807,3.6658 -17.9389,8.6133 -3.8306,2.7238 -7.8015,6.8728 -10.197,9.3145 3.5901,-3.6367 8.7338,-6.0668 14.2145,-6.0668 z"
       style="fill:#565659;fill-rule:evenodd"
       id="path20" />
  </g>
  <path
     d="m 171.3654,49.4054 v 15.3601 h -4.5258 V 19.7916 h 15.671 c 2.1691,0 4.3061,0.3495 6.3233,1.161 1.8414,0.7405 3.522,1.7757 4.951,3.1587 1.3872,1.3425 2.4528,2.9191 3.2003,4.6998 0.7696,1.8332 1.1321,3.7678 1.1321,5.7555 0,2.0361 -0.3498,4.0286 -1.1313,5.9131 -0.7449,1.7966 -1.8209,3.3794 -3.24,4.7086 -1.4842,1.3901 -3.2496,2.3913 -5.1511,3.094 -2.1719,0.8028 -4.4799,1.1231 -6.7884,1.1231 z m 0,-25.344 v 21.0742 h 10.8252 c 1.637,0 3.2865,-0.2262 4.8172,-0.8249 1.3238,-0.5182 2.5356,-1.2481 3.5541,-2.2453 0.9805,-0.9604 1.7226,-2.088 2.2393,-3.3602 0.5454,-1.3422 0.7903,-2.7561 0.7903,-4.2027 0,-1.4034 -0.244,-2.7722 -0.7877,-4.0685 -0.5267,-1.2558 -1.2869,-2.3556 -2.2697,-3.2984 -1.065,-1.0213 -2.3579,-1.7411 -3.738,-2.2445 -1.6705,-0.6097 -3.4745,-0.8297 -5.2456,-0.8297 z m 30.9943,40.7041 V 19.7916 h 4.2698 v 44.9739 z m 36.9918,-5.1979 c -1.262,1.4984 -2.7935,2.7181 -4.5331,3.6865 -2.5422,1.4147 -5.3876,1.9593 -8.2758,1.9593 -2.2997,0 -4.5408,-0.4162 -6.656,-1.3261 -2.0089,-0.8637 -3.8149,-2.0616 -5.3609,-3.6079 -1.552,-1.5517 -2.738,-3.3727 -3.5787,-5.3997 -0.8921,-2.1495 -1.2915,-4.4221 -1.2915,-6.7451 0,-2.3034 0.4079,-4.5516 1.2915,-6.6812 0.8407,-2.0271 2.0267,-3.8481 3.5787,-5.3997 1.546,-1.5463 3.352,-2.744 5.3609,-3.608 2.1152,-0.9099 4.3563,-1.326 6.656,-1.326 2.8695,0 5.711,0.5283 8.242,1.9264 1.7292,0.9553 3.2735,2.1484 4.5669,3.6091 v -5.0236 h 4.2701 v 33.1339 h -4.2701 z m -12.617,-24.3062 c -1.766,0 -3.4923,0.3016 -5.1262,0.9808 -1.5244,0.6335 -2.8859,1.5284 -4.0339,2.7181 -1.1515,1.1934 -2.0325,2.5815 -2.6683,4.1117 -0.6792,1.6344 -0.9805,3.3607 -0.9805,5.1267 0,1.7467 0.3098,3.4481 0.9805,5.0624 0.6358,1.5301 1.5168,2.9185 2.6683,4.1116 1.148,1.1897 2.5095,2.0846 4.0339,2.7182 1.6339,0.6792 3.3602,0.9808 5.1262,0.9808 1.7467,0 3.4484,-0.3099 5.0624,-0.9808 1.5338,-0.6372 2.9052,-1.537 4.0691,-2.7218 1.1605,-1.181 2.0554,-2.5524 2.6981,-4.0785 0.6823,-1.6206 0.9796,-3.3378 0.9796,-5.0919 0,-1.7663 -0.3016,-3.4923 -0.9808,-5.1265 -0.6386,-1.5363 -1.5304,-2.9211 -2.6969,-4.1082 -1.1639,-1.1849 -2.5356,-2.0846 -4.0691,-2.7218 -1.614,-0.671 -3.3157,-0.9808 -5.0624,-0.9808 z m 24.2422,19.1364 c 0.2642,2.0358 1.1191,3.7335 2.7825,4.9603 1.9156,1.4128 4.5122,1.7776 6.8315,1.7776 2.097,0 4.6156,-0.2897 6.349,-1.5834 1.3842,-1.0332 2.0441,-2.3975 2.0441,-4.1219 0,-0.86 -0.1664,-1.7427 -0.7104,-2.4329 -0.5332,-0.6769 -1.2166,-1.188 -1.9845,-1.5718 -0.9355,-0.4678 -1.9511,-0.7867 -2.971,-1.0092 -1.1926,-0.2602 -2.3925,-0.4864 -3.5941,-0.6999 -1.3904,-0.2466 -2.7737,-0.5303 -4.1522,-0.8367 -1.3314,-0.296 -2.6178,-0.7614 -3.8052,-1.4364 -1.1415,-0.6494 -2.0937,-1.5165 -2.8171,-2.6129 -0.8331,-1.2634 -1.0856,-2.8242 -1.0856,-4.3121 0,-2.7901 1.0709,-5.097 3.253,-6.8428 2.4285,-1.9426 5.5338,-2.556 8.5779,-2.556 3.1695,0 6.3825,0.6511 8.9005,2.6858 2.3108,1.8675 3.4801,4.3614 3.697,7.3114 l 0.0445,0.6086 h -4.2565 l -0.0533,-0.5077 c -0.0814,-0.7736 -0.3101,-1.5128 -0.65,-2.2113 -0.3648,-0.7503 -0.8887,-1.3884 -1.5219,-1.9284 -0.7353,-0.6276 -1.6189,-1.0613 -2.5316,-1.3657 -1.1727,-0.3909 -2.4619,-0.5148 -3.6927,-0.5148 -1.8822,0 -4.0326,0.288 -5.5786,1.4536 -1.2501,0.9425 -1.8544,2.175 -1.8544,3.7395 0,0.7514 0.1304,1.5431 0.5694,2.1707 0.4247,0.6064 0.9908,1.0715 1.6348,1.4295 0.7883,0.438 1.6489,0.7478 2.5211,0.9703 1.0361,0.2645 2.0778,0.5029 3.13,0.6957 1.4908,0.2732 2.9801,0.5536 4.4629,0.8668 1.4672,0.3101 2.9058,0.7679 4.2576,1.4204 1.3034,0.6293 2.3899,1.5293 3.2244,2.7117 0.9536,1.351 1.2558,3.022 1.2558,4.6468 0,2.9117 -1.1407,5.3169 -3.3707,7.1864 -2.588,2.1696 -6.0698,2.7884 -9.3563,2.7884 -3.3755,0 -6.8647,-0.6386 -9.6202,-2.7054 -2.6303,-1.9726 -3.888,-4.816 -4.2551,-8.0373 l -0.072,-0.631 h 4.3333 z m 31.7489,-18.8164 v 18.8892 c 0,1.0126 0.1134,2.1589 0.5533,3.0847 0.3345,0.7041 0.7812,1.3547 1.3853,1.8544 0.5405,0.4473 1.1483,0.7688 1.8278,0.9437 0.676,0.1737 1.3682,0.2701 2.0667,0.2701 h 2.9991 v 4.142 h -3.0632 c -1.1823,0 -2.3496,-0.1746 -3.4849,-0.502 -1.1979,-0.3456 -2.2734,-0.9352 -3.2201,-1.7467 -1.0228,-0.8765 -1.7867,-1.9829 -2.3528,-3.1989 -0.6967,-1.4964 -0.917,-3.2105 -0.917,-4.8473 V 35.5814 h -4.7999 v -3.9498 h 4.7999 v -9.2801 h 4.2058 v 9.2801 h 8.8959 v 3.9498 z m 11.9222,-11.264 v -4.5258 h 4.2698 v 4.5258 z m 0,40.4481 V 31.6316 h 4.2698 v 33.1339 z m 39.1938,-7.8225 c -1.5233,2.4815 -3.5243,4.5014 -6.0126,6.0123 -2.7652,1.679 -5.9921,2.2581 -9.1902,2.2581 -2.319,0 -4.585,-0.4077 -6.7201,-1.3261 -2.0055,-0.8623 -3.7956,-2.0715 -5.3056,-3.6487 -1.5066,-1.5741 -2.6481,-3.4053 -3.4461,-5.4326 -0.8478,-2.1541 -1.2234,-4.4249 -1.2234,-6.7354 0,-2.2814 0.3793,-4.5182 1.2243,-6.6416 0.7991,-2.0089 1.942,-3.8183 3.4481,-5.3694 1.5148,-1.5599 3.3066,-2.7553 5.3027,-3.6139 2.1351,-0.9184 4.4011,-1.326 6.7201,-1.326 3.2261,0 6.5911,0.5437 9.3592,2.2958 2.4304,1.5386 4.3738,3.5736 5.8476,6.0448 l 0.2727,0.4573 -3.3665,2.3037 -0.3104,-0.5137 c -1.1534,-1.9091 -2.6552,-3.4965 -4.5504,-4.6757 -2.13,-1.3252 -4.7858,-1.7065 -7.2522,-1.7065 -1.7419,0 -3.4509,0.2931 -5.0576,0.9788 -1.4884,0.635 -2.8187,1.5225 -3.9424,2.6878 -1.1282,1.1699 -1.9613,2.5427 -2.5336,4.0624 -0.6145,1.6313 -0.8915,3.3398 -0.8915,5.0802 0,1.7425 0.2877,3.4484 0.9213,5.074 0.595,1.5276 1.4428,2.9132 2.5713,4.104 1.1177,1.1801 2.444,2.0787 3.939,2.7165 1.6067,0.6857 3.3154,0.9785 5.0573,0.9785 2.4455,0 5.1052,-0.3674 7.2221,-1.6753 1.8851,-1.165 3.3724,-2.749 4.5167,-4.6428 l 0.3104,-0.5137 3.3721,2.3074 z m -137.9781,45.2109 h -24.5302 v 20.2881 h -4.5258 V 77.4681 h 4.5258 v 20.416 h 24.5302 v -20.416 h 4.5258 v 44.9739 h -4.5258 z m 25.2709,-13.3577 c 2.3099,0 4.5592,0.4201 6.6861,1.3252 2.0208,0.8598 3.8415,2.0554 5.3949,3.6088 1.5533,1.5534 2.749,3.3741 3.6087,5.3949 0.9051,2.1268 1.3252,4.3761 1.3252,6.6861 0,2.3289 -0.4113,4.6029 -1.3252,6.7498 -0.8597,2.0208 -2.0554,3.8415 -3.6087,5.3949 -1.5534,1.5534 -3.3741,2.7491 -5.3949,3.6088 -2.1272,0.9051 -4.3764,1.3252 -6.6861,1.3252 -2.329,0 -4.6029,-0.4116 -6.7499,-1.3252 -2.0208,-0.8597 -3.8415,-2.0551 -5.3949,-3.6088 -1.5534,-1.5534 -2.749,-3.3741 -3.6088,-5.3949 -0.9136,-2.1469 -1.3254,-4.4209 -1.3254,-6.7498 0,-2.3097 0.4203,-4.559 1.3254,-6.6861 0.8598,-2.0208 2.0554,-3.8415 3.6088,-5.3949 1.5534,-1.5537 3.3741,-2.749 5.3949,-3.6088 2.147,-0.9136 4.4209,-1.3252 6.7499,-1.3252 z m 0,4.1417 c -1.766,0 -3.4923,0.3016 -5.1262,0.9808 -1.5245,0.6335 -2.8859,1.5284 -4.034,2.7181 -1.1514,1.1934 -2.0324,2.5815 -2.6682,4.1117 -0.6792,1.6344 -0.9805,3.3607 -0.9805,5.1267 0,1.7467 0.3098,3.4481 0.9805,5.0624 0.6358,1.5302 1.5168,2.9186 2.6682,4.1117 1.1481,1.1897 2.5095,2.0846 4.034,2.7181 1.6339,0.6792 3.3602,0.9808 5.1262,0.9808 1.7543,0 3.4713,-0.2973 5.0921,-0.9796 1.514,-0.6378 2.863,-1.537 4.004,-2.7193 1.1514,-1.1934 2.0327,-2.5815 2.6685,-4.112 0.671,-1.614 0.9805,-3.3156 0.9805,-5.0621 0,-1.766 -0.3013,-3.4923 -0.9805,-5.1264 -0.6361,-1.5305 -1.5171,-2.9186 -2.6685,-4.112 -1.141,-1.1826 -2.49,-2.0814 -4.004,-2.7192 -1.6208,-0.6823 -3.3378,-0.9797 -5.0921,-0.9797 z m 43.1453,25.827 c -0.1588,0.1888 -0.3229,0.3731 -0.4907,0.5528 -0.6851,0.7344 -1.5029,1.3365 -2.3732,1.8337 -1.0029,0.5729 -2.09,0.9933 -3.2014,1.302 -1.3142,0.3651 -2.6949,0.5006 -4.0558,0.5006 -1.8153,0 -3.6162,-0.2815 -5.3022,-0.97 -1.5432,-0.6305 -2.9268,-1.5293 -4.0947,-2.7202 -1.1942,-1.2175 -2.0593,-2.6688 -2.6543,-4.2624 -0.6619,-1.7737 -0.9318,-3.6545 -0.9318,-5.5423 v -20.151 h 4.2698 v 19.7669 c 0,2.6016 0.5562,5.2398 2.3763,7.198 1.7586,1.8921 4.1392,2.5393 6.6569,2.5393 2.7465,0 5.2277,-0.7779 7.1402,-2.799 2.0171,-2.1313 2.6609,-4.9722 2.6609,-7.8341 V 89.3081 h 4.2698 v 33.1339 h -4.2698 z m 11.6249,-6.6906 c 0.2641,2.0359 1.1191,3.7335 2.7824,4.9604 1.9157,1.4128 4.5122,1.7776 6.8315,1.7776 2.0971,0 4.6157,-0.2897 6.3491,-1.5835 1.3841,-1.0332 2.044,-2.3975 2.044,-4.1218 0,-0.8601 -0.1664,-1.7428 -0.7103,-2.433 -0.5332,-0.6769 -1.2166,-1.188 -1.9846,-1.5718 -0.9354,-0.4677 -1.951,-0.7866 -2.9709,-1.0091 -1.1926,-0.2603 -2.3925,-0.4865 -3.5941,-0.6999 -1.3904,-0.2466 -2.7737,-0.5304 -4.1522,-0.8368 -1.3314,-0.2959 -2.6178,-0.7614 -3.8052,-1.4363 -1.1415,-0.6494 -2.0937,-1.5166 -2.8171,-2.613 -0.8331,-1.2634 -1.0857,-2.8242 -1.0857,-4.3121 0,-2.7901 1.071,-5.0969 3.2531,-6.8428 2.4284,-1.9426 5.5338,-2.556 8.5779,-2.556 3.1694,0 6.3825,0.6511 8.9005,2.6858 2.3108,1.8675 3.4801,4.3614 3.697,7.3114 l 0.0445,0.6086 h -4.2565 l -0.0533,-0.5077 c -0.0814,-0.7735 -0.3101,-1.5128 -0.65,-2.2113 -0.3648,-0.7503 -0.8887,-1.3884 -1.5219,-1.9284 -0.7353,-0.6276 -1.6189,-1.0613 -2.5317,-1.3657 -1.1727,-0.3909 -2.4619,-0.5148 -3.6927,-0.5148 -1.8822,0 -4.0325,0.288 -5.5785,1.4536 -1.2501,0.9426 -1.8545,2.1751 -1.8545,3.7395 0,0.7515 0.1304,1.5432 0.5695,2.1708 0.4246,0.6063 0.9907,1.0715 1.6348,1.4295 0.7883,0.4379 1.6489,0.7478 2.5211,0.9703 1.0361,0.2645 2.0778,0.5028 3.13,0.6956 1.4907,0.2733 2.9801,0.5536 4.4629,0.8668 1.4672,0.3101 2.9058,0.7679 4.2576,1.4205 1.3034,0.6293 2.3899,1.5293 3.2244,2.7116 0.9536,1.351 1.2558,3.022 1.2558,4.6468 0,2.9118 -1.1407,5.317 -3.3707,7.1864 -2.588,2.1697 -6.0698,2.7885 -9.3563,2.7885 -3.3755,0 -6.8647,-0.6387 -9.6202,-2.7054 -2.6303,-1.9726 -3.888,-4.8161 -4.2551,-8.0374 l -0.072,-0.631 h 4.3333 z m 28.8541,-4.5442 c 0.1545,1.5231 0.5244,3.0189 1.2044,4.3985 0.6914,1.4026 1.6183,2.6405 2.8052,3.6604 1.1724,1.0077 2.4965,1.7716 3.9509,2.2969 1.5245,0.5505 3.1173,0.7982 4.7356,0.7982 2.4727,0 5.1735,-0.3651 7.3202,-1.6769 1.8983,-1.16 3.3973,-2.7389 4.5465,-4.6412 l 0.3104,-0.5136 3.3721,2.3074 -0.2824,0.4597 c -1.5179,2.4724 -3.5053,4.4958 -5.9785,6.0109 -2.7774,1.7016 -6.0735,2.2595 -9.2883,2.2595 -2.3771,0 -4.7112,-0.3994 -6.908,-1.3243 -2.033,-0.8558 -3.8679,-2.0486 -5.429,-3.6097 -1.5519,-1.5517 -2.7379,-3.3726 -3.5787,-5.3997 -0.8921,-2.1495 -1.2915,-4.422 -1.2915,-6.745 0,-2.3035 0.4079,-4.5516 1.2915,-6.6813 0.8408,-2.027 2.0268,-3.848 3.5787,-5.3997 1.5461,-1.5463 3.352,-2.7439 5.3609,-3.6079 2.1351,-0.9185 4.4011,-1.3261 6.7201,-1.3261 2.3378,0 4.6307,0.3997 6.7839,1.3261 1.9701,0.8472 3.7638,2.0015 5.294,3.509 1.4902,1.4683 2.6422,3.1838 3.4529,5.112 0.8195,1.9493 1.2279,3.9928 1.2279,6.1078 0,0.4376 -0.005,0.8787 -0.0328,1.3155 -0.0188,0.3011 -0.0468,0.6112 -0.1061,0.9074 l -0.0907,0.4561 z m 0.0215,-4.0139 h 24.7102 c -0.1933,-1.4062 -0.5899,-2.7677 -1.2435,-4.0376 -0.6914,-1.3431 -1.5906,-2.5433 -2.721,-3.5479 -1.1112,-0.9878 -2.3814,-1.7254 -3.782,-2.2257 -1.4647,-0.523 -2.9908,-0.7671 -4.5451,-0.7671 -1.5366,0 -3.0345,0.2616 -4.4747,0.7965 -1.4035,0.5213 -2.691,1.2629 -3.8291,2.2354 -1.1585,0.9902 -2.0869,2.1839 -2.8142,3.5204 -0.686,1.2603 -1.1024,2.6161 -1.3006,4.026 z"
     style="fill:#565659;fill-rule:evenodd"
     id="path23" />
</svg>
