<?xml version="1.0" encoding="UTF-8"?>
<!DOCTYPE svg PUBLIC "-//W3C//DTD SVG 1.1//EN" "http://www.w3.org/Graphics/SVG/1.1/DTD/svg11.dtd">
<!-- Creator: CorelDRAW 2021.5 -->
<svg xmlns="http://www.w3.org/2000/svg" xml:space="preserve" width="141px" height="53px" version="1.1" style="shape-rendering:geometricPrecision; text-rendering:geometricPrecision; image-rendering:optimizeQuality; fill-rule:evenodd; clip-rule:evenodd"
viewBox="0 0 141 53.03"
 xmlns:xlink="http://www.w3.org/1999/xlink"
 xmlns:xodm="http://www.corel.com/coreldraw/odm/2003">
 <defs>
  <style type="text/css">
   <![CDATA[
    .fil2 {fill:#A0B9D8}
    .fil0 {fill:#315F98}
    .fil1 {fill:#345E9B}
   ]]>
  </style>
 </defs>
 <g id="Слой_x0020_1">
  <metadata id="CorelCorpID_0Corel-Layer"/>
  <g id="_1730818273648">
   <path class="fil0" d="M72.51 38.31l0 7.54 1.8 0 0 -16.83 -1.8 0 0 7.59 -9 0 0 -7.59 -1.8 0 0 16.83 1.8 0 0 -7.54 9 0zm4.9 5.86l0 0zm0 -9.09l0 0zm-1.35 2.03c-0.17,0.39 -0.29,0.79 -0.38,1.21 -0.08,0.42 -0.12,0.85 -0.12,1.29 0,0.45 0.04,0.89 0.12,1.31 0.09,0.43 0.21,0.83 0.38,1.22 0.16,0.39 0.36,0.75 0.58,1.09 0.23,0.34 0.49,0.65 0.77,0.94 0.29,0.28 0.6,0.54 0.93,0.76 0.34,0.23 0.71,0.42 1.09,0.59 0.39,0.17 0.8,0.29 1.22,0.37 0.42,0.09 0.86,0.13 1.31,0.13 0.45,0 0.88,-0.04 1.3,-0.13 0.41,-0.08 0.82,-0.2 1.21,-0.37 0.39,-0.17 0.75,-0.36 1.09,-0.59 0.34,-0.22 0.65,-0.48 0.93,-0.76 0.29,-0.29 0.54,-0.6 0.77,-0.94 0.23,-0.34 0.42,-0.7 0.59,-1.09 0.16,-0.39 0.29,-0.79 0.37,-1.22 0.08,-0.42 0.12,-0.86 0.12,-1.31 0,-0.44 -0.04,-0.87 -0.12,-1.29 -0.08,-0.42 -0.21,-0.82 -0.37,-1.21 -0.17,-0.39 -0.36,-0.75 -0.59,-1.09 -0.23,-0.34 -0.48,-0.65 -0.77,-0.94 -0.28,-0.28 -0.59,-0.54 -0.93,-0.76 -0.34,-0.23 -0.7,-0.43 -1.09,-0.59 -0.39,-0.17 -0.8,-0.29 -1.21,-0.37 -0.42,-0.09 -0.85,-0.13 -1.3,-0.13 -0.45,0 -0.89,0.04 -1.31,0.13 -0.42,0.08 -0.83,0.2 -1.22,0.37 -0.38,0.16 -0.75,0.36 -1.09,0.59 -0.33,0.22 -0.64,0.48 -0.93,0.76 -0.28,0.29 -0.54,0.6 -0.77,0.94 -0.22,0.34 -0.42,0.7 -0.58,1.09zm4.02 -1.87c0.29,-0.12 0.59,-0.21 0.9,-0.27 0.31,-0.06 0.64,-0.09 0.98,-0.09 0.34,0 0.67,0.03 0.98,0.09 0.31,0.06 0.61,0.15 0.89,0.27 0.29,0.12 0.56,0.26 0.8,0.43 0.24,0.17 0.47,0.36 0.67,0.57 0.21,0.21 0.4,0.45 0.56,0.7 0.16,0.25 0.3,0.52 0.43,0.81 0.12,0.29 0.21,0.59 0.27,0.9 0.06,0.32 0.09,0.64 0.09,0.99 0,0.33 -0.03,0.65 -0.09,0.96 -0.06,0.31 -0.15,0.61 -0.27,0.9 -0.13,0.29 -0.27,0.56 -0.43,0.81 -0.16,0.25 -0.35,0.48 -0.56,0.7 -0.41,0.42 -0.9,0.76 -1.47,1 -0.28,0.12 -0.58,0.21 -0.89,0.27 -0.31,0.06 -0.64,0.09 -0.98,0.09 -0.34,0 -0.67,-0.03 -0.98,-0.09 -0.31,-0.06 -0.61,-0.15 -0.9,-0.27 -0.58,-0.24 -1.07,-0.58 -1.48,-1 -0.21,-0.22 -0.39,-0.45 -0.56,-0.7 -0.16,-0.25 -0.3,-0.52 -0.42,-0.81 -0.12,-0.29 -0.21,-0.59 -0.27,-0.9 -0.06,-0.31 -0.09,-0.63 -0.09,-0.96 0,-0.35 0.03,-0.67 0.09,-0.99 0.06,-0.31 0.15,-0.61 0.27,-0.9 0.12,-0.29 0.26,-0.56 0.42,-0.81 0.17,-0.25 0.35,-0.49 0.56,-0.7 0.2,-0.21 0.43,-0.4 0.67,-0.57 0.25,-0.16 0.52,-0.31 0.81,-0.43zm12.17 10.44l0 0zm-2.89 -4.71c0,0.76 0.11,1.45 0.35,2.08 0.23,0.63 0.57,1.16 1,1.6 0.21,0.22 0.45,0.42 0.71,0.59 0.25,0.17 0.53,0.31 0.83,0.44 0.29,0.12 0.61,0.21 0.95,0.27 0.33,0.06 0.68,0.09 1.04,0.09 0.28,0 0.55,-0.02 0.8,-0.05 0.25,-0.03 0.49,-0.07 0.72,-0.14 0.23,-0.06 0.44,-0.13 0.64,-0.21 0.2,-0.08 0.39,-0.18 0.56,-0.28 0.36,-0.2 0.66,-0.43 0.9,-0.69l0.09 -0.09 0 1 0 0.27 1.69 0 0 -12.43 -1.69 0 0 7.07c0,0.62 -0.09,1.18 -0.25,1.66 -0.16,0.47 -0.4,0.88 -0.73,1.22 -0.32,0.34 -0.69,0.59 -1.13,0.76 -0.43,0.17 -0.93,0.26 -1.48,0.26 -0.53,0 -1,-0.08 -1.41,-0.23 -0.4,-0.16 -0.74,-0.39 -1.03,-0.7 -0.28,-0.31 -0.5,-0.68 -0.64,-1.11 -0.15,-0.44 -0.22,-0.95 -0.22,-1.52l0 -7.41 -1.7 0 0 7.55zm16.21 -0.72l0 0zm4.97 1.06l0 0zm-2.17 -5.07l0 0zm-5.78 3.16c0.21,0.12 0.44,0.23 0.68,0.32 0.24,0.09 0.49,0.16 0.75,0.22l0.76 0.16 0.79 0.16 0.67 0.12 0.66 0.13c0.21,0.05 0.4,0.1 0.59,0.17 0.18,0.06 0.35,0.13 0.5,0.2 0.15,0.08 0.28,0.16 0.41,0.26 0.12,0.09 0.22,0.2 0.31,0.31 0.08,0.11 0.14,0.23 0.19,0.37 0.04,0.15 0.06,0.32 0.06,0.5 0,0.32 -0.06,0.6 -0.18,0.85 -0.12,0.24 -0.31,0.46 -0.56,0.64 -0.25,0.19 -0.57,0.33 -0.94,0.43 -0.4,0.1 -0.86,0.15 -1.38,0.15 -0.55,0 -1.04,-0.06 -1.46,-0.17 -0.41,-0.1 -0.76,-0.27 -1.05,-0.48 -0.29,-0.21 -0.51,-0.47 -0.68,-0.76 -0.17,-0.31 -0.28,-0.65 -0.33,-1.05l-0.03 -0.23 -1.72 0 0.03 0.3c0.08,0.66 0.25,1.24 0.51,1.74 0.27,0.51 0.63,0.94 1.09,1.28 0.46,0.34 0.99,0.6 1.6,0.77 0.6,0.17 1.27,0.25 2.01,0.25 0.75,0 1.41,-0.09 2,-0.26 0.59,-0.17 1.1,-0.44 1.52,-0.79 0.85,-0.71 1.27,-1.62 1.27,-2.71 0,-0.36 -0.04,-0.68 -0.12,-0.97 -0.08,-0.3 -0.2,-0.56 -0.36,-0.79 -0.15,-0.22 -0.33,-0.42 -0.54,-0.59 -0.2,-0.17 -0.43,-0.32 -0.68,-0.44 -0.23,-0.11 -0.49,-0.22 -0.76,-0.3 -0.27,-0.09 -0.54,-0.17 -0.83,-0.23l-0.84 -0.17 -0.82 -0.15 -0.6 -0.13 -0.56 -0.13c-0.18,-0.05 -0.35,-0.1 -0.5,-0.16 -0.15,-0.06 -0.29,-0.12 -0.43,-0.2 -0.12,-0.07 -0.24,-0.14 -0.33,-0.23 -0.1,-0.09 -0.19,-0.18 -0.26,-0.28 -0.13,-0.19 -0.2,-0.45 -0.2,-0.78 0,-0.28 0.06,-0.53 0.17,-0.76 0.11,-0.22 0.28,-0.41 0.5,-0.58 0.47,-0.36 1.15,-0.53 2.04,-0.53 0.27,0 0.52,0.01 0.74,0.05 0.4,0.05 0.78,0.16 1.13,0.36 0.15,0.08 0.29,0.17 0.41,0.27 0.12,0.11 0.23,0.22 0.32,0.33 0.09,0.12 0.17,0.24 0.23,0.37 0.07,0.14 0.12,0.27 0.16,0.4 0.04,0.14 0.06,0.27 0.08,0.41l0.02 0.24 1.69 0 -0.02 -0.29c-0.04,-0.57 -0.18,-1.09 -0.41,-1.55 -0.23,-0.46 -0.56,-0.87 -0.98,-1.21 -0.42,-0.34 -0.91,-0.59 -1.48,-0.76 -0.55,-0.17 -1.17,-0.25 -1.87,-0.25 -0.66,0 -1.26,0.08 -1.8,0.24 -0.54,0.16 -1.01,0.4 -1.42,0.73 -0.41,0.32 -0.72,0.7 -0.92,1.14 -0.21,0.43 -0.31,0.91 -0.31,1.44 0,0.33 0.03,0.63 0.1,0.9 0.07,0.28 0.17,0.52 0.31,0.73 0.27,0.41 0.63,0.74 1.07,0.99zm21.36 0.35l0 0zm-0.45 -2.79l0 0zm-12.06 1.36c-0.08,0.42 -0.12,0.85 -0.12,1.29 0,0.45 0.04,0.89 0.12,1.31 0.08,0.43 0.2,0.83 0.36,1.22 0.16,0.39 0.36,0.75 0.58,1.09 0.22,0.34 0.48,0.65 0.76,0.94 0.29,0.28 0.6,0.54 0.94,0.76 0.34,0.23 0.71,0.42 1.1,0.59 0.4,0.17 0.81,0.29 1.24,0.37 0.43,0.09 0.88,0.13 1.35,0.13 0.69,0 1.33,-0.07 1.91,-0.21 0.58,-0.15 1.11,-0.36 1.57,-0.64 0.46,-0.28 0.87,-0.61 1.25,-0.99 0.37,-0.37 0.7,-0.8 0.99,-1.27l0.13 -0.21 -1.34 -0.92 -0.15 0.24c-0.22,0.36 -0.47,0.69 -0.74,0.97 -0.28,0.29 -0.59,0.53 -0.93,0.74 -0.67,0.41 -1.57,0.61 -2.69,0.61 -0.31,0 -0.61,-0.02 -0.9,-0.07 -0.29,-0.05 -0.57,-0.12 -0.84,-0.22 -0.27,-0.1 -0.53,-0.22 -0.77,-0.36 -0.24,-0.14 -0.47,-0.3 -0.68,-0.48 -0.22,-0.19 -0.41,-0.39 -0.58,-0.61 -0.17,-0.23 -0.32,-0.47 -0.45,-0.74 -0.13,-0.26 -0.24,-0.55 -0.31,-0.85 -0.06,-0.23 -0.1,-0.46 -0.13,-0.7l10.75 0 0.05 -0.22 0.02 -0.16 0.02 -0.18 0.01 -0.23 0 -0.26c0,-0.4 -0.04,-0.79 -0.12,-1.17 -0.07,-0.39 -0.19,-0.76 -0.34,-1.13 -0.15,-0.36 -0.34,-0.7 -0.56,-1.02 -0.21,-0.32 -0.46,-0.62 -0.74,-0.89 -0.28,-0.28 -0.58,-0.53 -0.91,-0.74 -0.33,-0.22 -0.69,-0.42 -1.07,-0.58 -0.39,-0.17 -0.79,-0.29 -1.22,-0.37 -0.42,-0.09 -0.87,-0.13 -1.33,-0.13 -0.45,0 -0.89,0.04 -1.3,0.13 -0.43,0.08 -0.83,0.2 -1.22,0.37 -0.38,0.16 -0.74,0.36 -1.07,0.59 -0.34,0.22 -0.65,0.48 -0.94,0.76 -0.28,0.29 -0.54,0.6 -0.76,0.94 -0.22,0.34 -0.42,0.7 -0.58,1.09 -0.16,0.39 -0.28,0.79 -0.36,1.21zm10.74 0.38l-9.06 0c0.03,-0.21 0.08,-0.41 0.14,-0.61 0.08,-0.28 0.19,-0.55 0.33,-0.8 0.14,-0.26 0.29,-0.49 0.47,-0.71 0.17,-0.21 0.36,-0.41 0.56,-0.58 0.21,-0.18 0.43,-0.34 0.66,-0.47 0.24,-0.14 0.49,-0.26 0.75,-0.36 0.26,-0.09 0.53,-0.17 0.8,-0.21 0.28,-0.05 0.56,-0.08 0.84,-0.08 0.3,0 0.59,0.03 0.86,0.07 0.28,0.05 0.55,0.12 0.82,0.21 0.26,0.1 0.51,0.21 0.74,0.35 0.22,0.13 0.44,0.29 0.64,0.47 0.2,0.18 0.39,0.38 0.55,0.59 0.17,0.22 0.32,0.46 0.45,0.71 0.13,0.26 0.24,0.53 0.32,0.81 0.05,0.2 0.1,0.4 0.13,0.61zm2.2 -14.56c0.58,-0.14 1.1,-0.35 1.57,-0.64 0.46,-0.28 0.88,-0.61 1.26,-0.98 0.37,-0.38 0.7,-0.8 0.99,-1.27l0.13 -0.22 -1.34 -0.92 -0.15 0.24c-0.22,0.37 -0.46,0.69 -0.74,0.98 -0.28,0.28 -0.58,0.53 -0.92,0.73 -0.66,0.41 -1.54,0.62 -2.65,0.62 -0.34,0 -0.67,-0.03 -0.98,-0.09 -0.31,-0.06 -0.6,-0.15 -0.88,-0.27 -0.28,-0.12 -0.54,-0.27 -0.78,-0.43 -0.24,-0.17 -0.47,-0.36 -0.67,-0.57 -0.2,-0.21 -0.38,-0.45 -0.54,-0.7 -0.15,-0.25 -0.29,-0.52 -0.4,-0.81 -0.11,-0.29 -0.2,-0.59 -0.26,-0.9 -0.05,-0.31 -0.08,-0.63 -0.08,-0.96 0,-0.34 0.03,-0.66 0.08,-0.97 0.06,-0.31 0.14,-0.62 0.25,-0.9 0.11,-0.29 0.24,-0.56 0.39,-0.81 0.16,-0.25 0.34,-0.48 0.54,-0.69 0.2,-0.2 0.42,-0.39 0.66,-0.55 0.24,-0.17 0.5,-0.31 0.78,-0.43 0.28,-0.12 0.58,-0.21 0.89,-0.27 0.31,-0.06 0.63,-0.09 0.97,-0.09 1.11,0 2,0.21 2.67,0.63 0.34,0.21 0.65,0.45 0.93,0.74 0.27,0.29 0.52,0.61 0.74,0.98l0.15 0.24 1.34 -0.92 -0.13 -0.22c-0.28,-0.47 -0.6,-0.89 -0.96,-1.27 -0.37,-0.38 -0.78,-0.71 -1.23,-0.99 -0.45,-0.29 -0.98,-0.51 -1.57,-0.65 -0.58,-0.14 -1.23,-0.21 -1.94,-0.21 -0.45,0 -0.89,0.04 -1.31,0.12 -0.42,0.08 -0.82,0.21 -1.21,0.37 -0.38,0.17 -0.74,0.36 -1.07,0.59 -0.33,0.23 -0.64,0.48 -0.91,0.77 -0.28,0.29 -0.53,0.6 -0.75,0.93 -0.21,0.34 -0.39,0.7 -0.55,1.08 -0.3,0.77 -0.46,1.6 -0.46,2.49 0,0.45 0.04,0.89 0.12,1.31 0.07,0.42 0.19,0.83 0.34,1.22 0.15,0.39 0.34,0.75 0.55,1.09 0.22,0.34 0.46,0.65 0.74,0.94 0.28,0.29 0.59,0.55 0.92,0.78 0.33,0.23 0.69,0.43 1.07,0.59 0.39,0.17 0.79,0.29 1.21,0.38 0.42,0.08 0.86,0.12 1.31,0.12 0.68,0 1.31,-0.07 1.88,-0.21zm16.55 -6.06l0 0zm-0.44 -2.78l0 0zm-12.06 3.96c0.08,0.42 0.2,0.82 0.36,1.21 0.16,0.39 0.35,0.76 0.58,1.09 0.22,0.34 0.48,0.65 0.76,0.94 0.29,0.28 0.6,0.54 0.94,0.77 0.34,0.22 0.7,0.42 1.1,0.58 0.39,0.17 0.81,0.29 1.24,0.38 0.43,0.08 0.88,0.12 1.35,0.12 0.69,0 1.33,-0.07 1.91,-0.21 0.58,-0.14 1.1,-0.35 1.57,-0.64 0.46,-0.28 0.87,-0.61 1.25,-0.98 0.37,-0.38 0.7,-0.8 0.99,-1.27l0.13 -0.22 -1.34 -0.92 -0.15 0.24c-0.22,0.37 -0.47,0.69 -0.75,0.98 -0.27,0.28 -0.58,0.52 -0.92,0.73 -0.67,0.41 -1.57,0.62 -2.69,0.62 -0.32,0 -0.62,-0.03 -0.91,-0.08 -0.29,-0.05 -0.57,-0.12 -0.84,-0.22 -0.26,-0.09 -0.52,-0.21 -0.76,-0.35 -0.25,-0.15 -0.47,-0.31 -0.69,-0.49 -0.21,-0.18 -0.4,-0.39 -0.57,-0.61 -0.17,-0.22 -0.33,-0.47 -0.46,-0.73 -0.13,-0.27 -0.23,-0.55 -0.31,-0.86 -0.05,-0.22 -0.09,-0.46 -0.12,-0.7l10.75 0 0.04 -0.21 0.03 -0.16 0.01 -0.19 0.01 -0.22 0.01 -0.27c0,-0.4 -0.04,-0.79 -0.12,-1.17 -0.08,-0.38 -0.19,-0.76 -0.34,-1.12 -0.16,-0.37 -0.34,-0.71 -0.56,-1.03 -0.21,-0.32 -0.46,-0.62 -0.74,-0.89 -0.28,-0.28 -0.58,-0.52 -0.91,-0.74 -0.34,-0.22 -0.69,-0.41 -1.08,-0.58 -0.38,-0.16 -0.79,-0.29 -1.21,-0.37 -0.43,-0.08 -0.87,-0.12 -1.33,-0.12 -0.45,0 -0.89,0.04 -1.31,0.12 -0.42,0.08 -0.82,0.21 -1.21,0.37 -0.38,0.17 -0.74,0.36 -1.08,0.59 -0.33,0.23 -0.65,0.48 -0.93,0.77 -0.28,0.28 -0.54,0.59 -0.76,0.93 -0.23,0.34 -0.42,0.7 -0.58,1.09 -0.16,0.39 -0.28,0.79 -0.36,1.21 -0.09,0.42 -0.13,0.85 -0.13,1.3 0,0.45 0.04,0.88 0.13,1.31zm10.74 -2.22l-9.06 0c0.03,-0.21 0.08,-0.42 0.13,-0.61 0.09,-0.29 0.2,-0.56 0.34,-0.81 0.14,-0.25 0.29,-0.49 0.46,-0.71 0.17,-0.21 0.36,-0.4 0.57,-0.58 0.2,-0.18 0.42,-0.33 0.66,-0.47 0.24,-0.14 0.49,-0.26 0.75,-0.35 0.26,-0.1 0.52,-0.17 0.8,-0.22 0.27,-0.05 0.55,-0.07 0.84,-0.07 0.3,0 0.58,0.02 0.86,0.07 0.28,0.04 0.55,0.11 0.81,0.21 0.27,0.09 0.51,0.21 0.74,0.34 0.23,0.14 0.45,0.29 0.65,0.47 0.2,0.18 0.39,0.38 0.55,0.6 0.17,0.21 0.32,0.45 0.45,0.71 0.13,0.25 0.24,0.52 0.32,0.8 0.05,0.2 0.1,0.41 0.13,0.62zm-23.94 7.14l0 -12.42 -1.7 0 0 12.16 0 0.26 1.7 0zm-6.02 -3.88l0 -6.97 3.31 0 0 -1.31 0 -0.26 -3.31 0 0 -3.45 -1.68 0 0 3.45 -1.78 0 0 1.57 1.78 0 0 6.97c0,0.36 0.03,0.69 0.09,0.99 0.06,0.31 0.14,0.59 0.26,0.84 0.11,0.24 0.25,0.46 0.39,0.67 0.15,0.2 0.32,0.38 0.5,0.53 0.18,0.16 0.37,0.29 0.58,0.4 0.2,0.11 0.41,0.2 0.64,0.26 0.44,0.13 0.87,0.19 1.31,0.19l1.19 0 0 -1.65 -1.17 0c-0.13,0 -0.25,0 -0.37,-0.02 -0.13,-0.02 -0.26,-0.04 -0.38,-0.07 -0.12,-0.03 -0.24,-0.08 -0.35,-0.14 -0.1,-0.05 -0.21,-0.12 -0.31,-0.21 -0.1,-0.08 -0.19,-0.17 -0.27,-0.28 -0.09,-0.11 -0.16,-0.24 -0.23,-0.39 -0.07,-0.13 -0.12,-0.29 -0.15,-0.48 -0.03,-0.18 -0.05,-0.4 -0.05,-0.64zm-4.42 -4.47l1.34 -0.92 -0.12 -0.22c-0.28,-0.47 -0.61,-0.89 -0.97,-1.27 -0.37,-0.38 -0.78,-0.71 -1.23,-0.99 -0.45,-0.29 -0.97,-0.51 -1.56,-0.65 -0.59,-0.14 -1.23,-0.21 -1.94,-0.21 -0.46,0 -0.89,0.04 -1.31,0.12 -0.42,0.08 -0.83,0.21 -1.21,0.37 -0.39,0.17 -0.74,0.36 -1.08,0.59 -0.33,0.23 -0.63,0.48 -0.91,0.77 -0.28,0.29 -0.53,0.6 -0.74,0.93 -0.22,0.34 -0.4,0.7 -0.56,1.08 -0.3,0.77 -0.46,1.6 -0.46,2.49 0,0.45 0.04,0.89 0.12,1.31 0.08,0.42 0.19,0.83 0.34,1.22 0.16,0.39 0.34,0.75 0.56,1.09 0.21,0.34 0.46,0.65 0.74,0.94 0.27,0.29 0.58,0.55 0.91,0.78 0.34,0.23 0.69,0.43 1.08,0.59 0.38,0.17 0.79,0.29 1.21,0.38 0.42,0.08 0.85,0.12 1.31,0.12 0.67,0 1.3,-0.07 1.87,-0.21 0.58,-0.14 1.1,-0.35 1.57,-0.64 0.47,-0.28 0.89,-0.61 1.26,-0.98 0.37,-0.38 0.71,-0.8 1,-1.27l0.13 -0.22 -1.35 -0.92 -0.14 0.24c-0.22,0.37 -0.47,0.69 -0.75,0.98 -0.27,0.28 -0.58,0.53 -0.91,0.73 -0.67,0.41 -1.55,0.62 -2.66,0.62 -0.34,0 -0.67,-0.03 -0.98,-0.09 -0.3,-0.06 -0.6,-0.15 -0.88,-0.27 -0.28,-0.12 -0.54,-0.27 -0.78,-0.43 -0.24,-0.17 -0.46,-0.36 -0.66,-0.57 -0.21,-0.21 -0.39,-0.45 -0.54,-0.7 -0.16,-0.25 -0.3,-0.52 -0.41,-0.81 -0.11,-0.29 -0.2,-0.59 -0.25,-0.9 -0.06,-0.31 -0.09,-0.63 -0.09,-0.96 0,-0.34 0.03,-0.66 0.09,-0.97 0.05,-0.31 0.13,-0.62 0.24,-0.9 0.11,-0.29 0.24,-0.56 0.4,-0.81 0.15,-0.25 0.33,-0.48 0.53,-0.69 0.2,-0.2 0.42,-0.39 0.66,-0.55 0.25,-0.17 0.51,-0.31 0.79,-0.43 0.28,-0.12 0.57,-0.21 0.88,-0.27 0.31,-0.06 0.64,-0.09 0.98,-0.09 1.1,0 1.99,0.21 2.66,0.63 0.34,0.21 0.65,0.45 0.93,0.74 0.28,0.29 0.53,0.61 0.75,0.98l0.14 0.24zm-13.46 -2.29c-0.14,-0.15 -0.28,-0.3 -0.44,-0.43 -0.35,-0.31 -0.74,-0.58 -1.17,-0.82 -0.44,-0.24 -0.92,-0.42 -1.44,-0.55 -0.51,-0.11 -1.06,-0.17 -1.65,-0.17 -0.45,0 -0.88,0.04 -1.29,0.12 -0.42,0.08 -0.82,0.21 -1.21,0.37 -0.38,0.17 -0.74,0.36 -1.08,0.59 -0.34,0.23 -0.65,0.48 -0.93,0.77 -0.28,0.28 -0.54,0.59 -0.76,0.93 -0.23,0.34 -0.42,0.7 -0.58,1.09 -0.16,0.39 -0.28,0.79 -0.37,1.21 -0.08,0.42 -0.12,0.85 -0.12,1.3 0,0.45 0.04,0.88 0.12,1.31 0.09,0.42 0.21,0.82 0.37,1.21 0.16,0.39 0.35,0.76 0.58,1.09 0.22,0.34 0.48,0.65 0.76,0.94 0.28,0.28 0.59,0.54 0.93,0.77 0.34,0.22 0.7,0.42 1.08,0.58 0.39,0.17 0.79,0.29 1.21,0.38 0.41,0.08 0.84,0.12 1.29,0.12 0.59,0 1.14,-0.06 1.66,-0.18 0.52,-0.13 1,-0.31 1.44,-0.56 0.63,-0.34 1.16,-0.77 1.6,-1.27l0 1.84 1.7 0 0 -12.42 -1.7 0 0 1.78zm-5.61 -0.23c0.31,-0.06 0.64,-0.09 0.98,-0.09 0.33,0 0.65,0.03 0.96,0.09 0.31,0.06 0.61,0.15 0.9,0.27 0.29,0.12 0.56,0.26 0.81,0.43 0.24,0.16 0.47,0.35 0.68,0.57 0.21,0.21 0.4,0.44 0.57,0.69 0.16,0.25 0.3,0.52 0.42,0.81 0.12,0.29 0.21,0.59 0.27,0.91 0.06,0.31 0.09,0.64 0.09,0.98 0,0.34 -0.03,0.67 -0.09,0.98 -0.06,0.31 -0.15,0.61 -0.26,0.89 -0.12,0.29 -0.27,0.55 -0.43,0.81 -0.17,0.25 -0.36,0.48 -0.57,0.69 -0.42,0.43 -0.91,0.76 -1.49,1 -0.29,0.12 -0.59,0.21 -0.9,0.27 -0.31,0.06 -0.63,0.09 -0.96,0.09 -0.34,0 -0.67,-0.03 -0.98,-0.09 -0.32,-0.06 -0.62,-0.15 -0.91,-0.27 -0.57,-0.24 -1.07,-0.57 -1.48,-1 -0.2,-0.21 -0.39,-0.44 -0.55,-0.7 -0.17,-0.25 -0.31,-0.52 -0.43,-0.81 -0.12,-0.29 -0.21,-0.59 -0.27,-0.9 -0.06,-0.31 -0.09,-0.63 -0.09,-0.96 0,-0.34 0.03,-0.67 0.09,-0.98 0.06,-0.32 0.15,-0.62 0.27,-0.91 0.12,-0.29 0.26,-0.56 0.43,-0.81 0.16,-0.25 0.35,-0.48 0.55,-0.7 0.21,-0.21 0.43,-0.4 0.68,-0.56 0.25,-0.17 0.51,-0.31 0.8,-0.43 0.29,-0.12 0.59,-0.21 0.91,-0.27zm-8.68 -0.42l0 0zm1.17 1.13c0.2,-0.14 0.41,-0.25 0.63,-0.35 0.23,-0.1 0.46,-0.17 0.71,-0.22 0.24,-0.04 0.5,-0.07 0.77,-0.07l0.27 0 0 -1.81 -0.27 0c-0.58,0 -1.11,0.08 -1.59,0.26 -0.23,0.09 -0.45,0.19 -0.65,0.3 -0.21,0.11 -0.4,0.23 -0.57,0.36 -0.17,0.12 -0.32,0.26 -0.47,0.4 -0.15,0.14 -0.28,0.28 -0.4,0.43l-0.03 0.03 0 -1.59 -1.69 0 0 12.42 1.69 0 0 -6.73c0,-0.32 0.03,-0.61 0.07,-0.89 0.05,-0.28 0.12,-0.55 0.21,-0.79 0.1,-0.25 0.21,-0.48 0.34,-0.7 0.13,-0.21 0.28,-0.41 0.44,-0.58 0.17,-0.18 0.35,-0.34 0.54,-0.47zm-5.18 1.1c0.28,-0.68 0.42,-1.42 0.42,-2.22 0,-0.38 -0.03,-0.75 -0.11,-1.11 -0.07,-0.36 -0.17,-0.71 -0.31,-1.05 -0.15,-0.33 -0.32,-0.65 -0.52,-0.95 -0.2,-0.29 -0.43,-0.56 -0.69,-0.81 -0.26,-0.25 -0.54,-0.48 -0.85,-0.68 -0.31,-0.19 -0.65,-0.37 -1.01,-0.51 -0.72,-0.29 -1.51,-0.44 -2.37,-0.44l-5.88 0 0 16.83 1.8 0 0 -5.71 3.82 0c0.47,0 0.91,-0.03 1.33,-0.1 0.43,-0.07 0.83,-0.18 1.21,-0.32 0.38,-0.14 0.73,-0.3 1.06,-0.5 0.32,-0.19 0.61,-0.41 0.88,-0.66 0.26,-0.25 0.5,-0.52 0.7,-0.81 0.2,-0.3 0.37,-0.62 0.52,-0.96zm-1.37 -2.24c0,0.28 -0.03,0.54 -0.08,0.8 -0.04,0.25 -0.12,0.5 -0.21,0.74 -0.1,0.24 -0.22,0.46 -0.35,0.66 -0.14,0.21 -0.29,0.4 -0.47,0.57 -0.18,0.17 -0.38,0.33 -0.59,0.47 -0.22,0.13 -0.46,0.25 -0.71,0.35 -0.26,0.1 -0.54,0.18 -0.83,0.23 -0.3,0.05 -0.61,0.08 -0.95,0.08l-3.96 0 0 -7.73 3.73 0c0.37,0 0.71,0.03 1.03,0.08 0.32,0.05 0.62,0.13 0.9,0.23 0.28,0.1 0.53,0.22 0.76,0.36 0.22,0.13 0.43,0.29 0.61,0.46 0.18,0.17 0.34,0.36 0.48,0.56 0.13,0.2 0.25,0.42 0.35,0.65 0.09,0.23 0.17,0.46 0.21,0.71 0.05,0.25 0.08,0.51 0.08,0.78zm41.87 -5.53l0 1.53 0 0.27 1.7 0 0 -1.8 -1.7 0z"/>
   <path class="fil1" d="M21.71 25.84l0 0zm-4.73 2.27l-5.3 0 0 -10.33 4.99 0c0.49,0 0.95,0.04 1.38,0.11 0.42,0.06 0.82,0.16 1.19,0.3 0.37,0.13 0.71,0.29 1.01,0.48 0.31,0.18 0.58,0.39 0.82,0.62 0.24,0.23 0.46,0.48 0.64,0.75 0.58,0.85 0.86,1.83 0.86,2.86 0,0.37 -0.03,0.73 -0.1,1.07 -0.06,0.34 -0.16,0.67 -0.29,0.99 -0.13,0.32 -0.28,0.61 -0.47,0.88 -0.18,0.28 -0.39,0.53 -0.63,0.76 -0.23,0.23 -0.5,0.44 -0.78,0.62 -0.29,0.19 -0.61,0.35 -0.96,0.48 -0.34,0.14 -0.71,0.24 -1.1,0.3 -0.39,0.07 -0.81,0.11 -1.26,0.11zm7.22 -2.3c0.19,-0.44 0.33,-0.9 0.42,-1.38 0.09,-0.49 0.14,-0.99 0.14,-1.5 0,-0.5 -0.05,-0.98 -0.14,-1.45 -0.09,-0.47 -0.23,-0.92 -0.42,-1.36 -0.18,-0.44 -0.4,-0.85 -0.66,-1.23 -0.26,-0.38 -0.56,-0.74 -0.9,-1.06 -0.33,-0.33 -0.7,-0.62 -1.11,-0.88 -0.4,-0.25 -0.84,-0.48 -1.3,-0.66 -0.47,-0.19 -0.97,-0.33 -1.48,-0.43 -0.52,-0.09 -1.05,-0.14 -1.61,-0.14l-7.65 0 0 21.96 2.19 0 0 -7.51 5.12 0c1.22,0 2.32,-0.18 3.31,-0.55 0.49,-0.18 0.95,-0.4 1.37,-0.65 0.42,-0.25 0.8,-0.54 1.14,-0.86 0.69,-0.64 1.22,-1.41 1.58,-2.3z"/>
   <polygon class="fil1" points="27.17,15.72 27.17,37.68 29.36,37.68 29.36,27.76 41.37,27.76 41.37,37.68 43.56,37.68 43.56,15.72 41.37,15.72 41.37,25.7 29.36,25.7 29.36,15.72 "/>
   <g>
    <path class="fil2" d="M41.19 48.72l-29.46 0c-2.07,0 -3.96,-0.89 -5.31,-2.27 -0.88,-0.91 -2.43,-2.46 -3.42,-3.92 -1.78,-2.64 -3.03,-5.18 -3.05,-6.29l0 8.06c0,4.86 3.97,8.84 8.83,8.84l27.22 0c1.11,-0.06 4.09,-1.37 6.69,-3.21 1.42,-1.02 2.9,-2.56 3.8,-3.47 -1.34,1.35 -3.26,2.26 -5.3,2.26z"/>
    <path class="fil0" d="M6.36 6.86c0.89,-0.9 2.43,-2.52 3.88,-3.55 2.59,-1.84 5.58,-3.15 6.69,-3.2l-8.15 0c-4.86,0 -8.83,3.97 -8.83,8.84l0 27.29c0.02,1.11 1.27,3.65 3.05,6.29 0.99,1.46 2.54,3.01 3.42,3.92 -1.28,-1.33 -2.05,-3.12 -2.05,-5.1l0 -29.46c0,-2 0.68,-3.7 1.99,-5.03z"/>
    <path class="fil2" d="M11.73 4.53l29.46 0c2.07,0 3.96,0.88 5.3,2.27 0.89,0.91 2.43,2.45 3.43,3.92 1.78,2.63 3.02,5.18 3.05,6.29l0 -8.06c0,-4.86 -3.98,-8.84 -8.84,-8.84l-27.22 0c-1.1,0.05 -4.09,1.36 -6.68,3.21 -1.43,1.01 -2.91,2.56 -3.8,3.47 1.34,-1.36 3.26,-2.26 5.3,-2.26z"/>
    <path class="fil0" d="M46.56 46.38c-0.89,0.91 -2.44,2.53 -3.88,3.55 -2.59,1.84 -5.59,3.15 -6.69,3.21l8.14 0c4.86,0 8.84,-3.98 8.84,-8.84l0 -27.29c-0.03,-1.11 -1.27,-3.66 -3.05,-6.29 -1,-1.47 -2.54,-3.01 -3.43,-3.92 1.29,1.32 2.06,3.11 2.06,5.09l0 29.46c0,2 -0.69,3.7 -1.99,5.03z"/>
   </g>
  </g>
 </g>
</svg>
