<svg width="24" height="24" viewBox="0 0 24 24" fill="none" xmlns="http://www.w3.org/2000/svg">
<path d="M5.01189 5.1674L4.94096 4.75145L4.55073 2.46307L4.55052 2.46186C4.36022 1.32918 3.37369 0.497607 2.21644 0.500005L2.21541 0.500007L0.5738 0.500006C0.531052 0.500006 0.5 0.533903 0.5 0.571433C0.5 0.608963 0.531052 0.64286 0.5738 0.64286H2.21469H2.21518V1.14286C3.05549 1.14107 3.77363 1.74509 3.91238 2.57031L5.01189 5.1674ZM5.01189 5.1674H5.43384M5.01189 5.1674H5.43384M5.43384 5.1674H23.4263C23.4509 5.1674 23.4729 5.17902 23.4864 5.19739C23.4998 5.21573 23.5035 5.23883 23.4966 5.26002L21.7087 10.8087L21.7083 10.8097C21.3207 12.0217 20.1879 12.8457 18.9076 12.8428H18.9065H6.91272H6.3203M5.43384 5.1674L6.3203 12.8428M6.3203 12.8428L6.41983 13.4268M6.3203 12.8428L6.41983 13.4268M6.41983 13.4268L6.62854 14.6514C6.62857 14.6516 6.6286 14.6517 6.62863 14.6519L6.41983 13.4268ZM8.73163 23.3571H8.73217C9.83148 23.3559 10.7256 22.4684 10.7271 21.3687V21.368C10.7271 20.2676 9.83177 19.379 8.73185 19.379C7.63173 19.379 6.73668 20.2674 6.73638 21.3677V21.3678C6.73638 22.4684 7.63165 23.3571 8.73163 23.3571ZM19.1333 23.3571H19.1339C20.2329 23.3559 21.1274 22.4684 21.1286 21.3686V21.368C21.1286 20.2676 20.2332 19.379 19.1333 19.379C18.0334 19.379 17.1381 20.2674 17.1381 21.368C17.1381 22.4684 18.0331 23.3571 19.1333 23.3571ZM4.40546 2.48741C4.40543 2.48725 4.4054 2.48708 4.40537 2.48692L8.81859 15.9957V16.4957H8.81979H21.0506C21.0933 16.4957 21.1244 16.5297 21.1244 16.5671C21.1244 16.6046 21.0933 16.6386 21.0506 16.6386L8.81882 16.6386L8.81762 16.6386C7.66031 16.6413 6.67352 15.8097 6.48302 14.6767L6.48283 14.6756L4.40546 2.48741ZM6.22506 12.284L6.29597 12.7H6.71795L18.9052 12.7L18.9063 12.2V12.7H18.9056C20.12 12.7025 21.1981 11.9211 21.5679 10.7658C21.568 10.7656 21.568 10.7655 21.5681 10.7653L23.1152 5.9636L23.3258 5.31026H22.6393H5.62862H5.03617L5.13573 5.89429L6.22506 12.284ZM8.73185 23.5C7.54642 23.5 6.589 22.5437 6.58878 21.3683L10.8747 21.3687C10.8744 22.5439 9.91706 23.5 8.73185 23.5ZM6.58878 21.3682C6.58882 20.1929 7.546 19.2364 8.73109 19.2361L6.58878 21.3682ZM8.73115 19.2361C9.91626 19.2374 10.8732 20.1933 10.8747 21.3686L8.73115 19.2361ZM16.9905 21.368C16.9905 20.1928 17.9476 19.2365 19.1327 19.2361L21.2762 21.3687C21.2758 22.5439 20.3185 23.5 19.1333 23.5C17.9479 23.5 16.9905 22.5435 16.9905 21.368ZM19.1328 19.2361C20.318 19.2376 21.2747 20.1934 21.2762 21.3686L19.1328 19.2361Z" fill="#222222" stroke="#222222"/>
</svg>
