<svg width="38" height="38" viewBox="0 0 38 38" fill="none" xmlns="http://www.w3.org/2000/svg">
<path d="M36.8569 6.62373H31.3763V1.14314C31.3763 0.511414 30.8643 0 30.2331 0H1.14314C0.511414 0 0 0.511414 0 1.14314V30.2331C0 30.8643 0.511414 31.3763 1.14314 31.3763H6.62373V36.8569C6.62373 37.4886 7.13573 38 7.76688 38H36.8569C37.4886 38 38 37.4886 38 36.8569V7.76688C38 7.13573 37.4886 6.62373 36.8569 6.62373ZM35.714 35.714H8.90973V31.3763H30.2331C30.8643 31.3763 31.3763 30.8643 31.3763 30.2331V8.90973H35.714V35.714ZM2.286 2.286H29.0903V29.0903H2.286V2.286Z" fill="#343434"/>
<path d="M7.74398 10.321H10.0132C11.5283 10.321 11.5216 8.03504 10.0132 8.03504H7.74398C6.23467 8.03504 6.22887 10.321 7.74398 10.321Z" fill="#343434"/>
<path d="M14.4605 10.321H23.6326C25.1448 10.321 25.1576 8.03504 23.6326 8.03504H14.4605C12.9352 8.03504 12.948 10.321 14.4605 10.321Z" fill="#343434"/>
<path d="M7.74397 16.831H10.0131C11.523 16.831 11.5265 14.545 10.0131 14.545C9.23066 14.545 8.5653 14.545 7.76687 14.545H7.74397C6.2277 14.545 6.21842 16.831 7.74397 16.831Z" fill="#343434"/>
<path d="M14.4605 16.831H23.6326C25.1425 16.831 25.1451 14.545 23.6326 14.545H14.4605C12.9503 14.545 12.948 16.831 14.4605 16.831Z" fill="#343434"/>
<path d="M7.74397 23.3402H10.0131C11.5254 23.3402 11.5236 21.0542 10.0131 21.0542C9.23066 21.0542 8.5653 21.0542 7.76687 21.0542H7.74397C6.23727 21.0542 6.21118 23.3402 7.74397 23.3402Z" fill="#343434"/>
<path d="M14.4605 23.3402H23.6326C25.1425 23.3402 25.1451 21.0542 23.6326 21.0542H14.4605C12.9506 21.0542 12.948 23.3402 14.4605 23.3402Z" fill="#343434"/>
</svg>
