<svg width="24" height="24" viewBox="0 0 24 24" fill="none" xmlns="http://www.w3.org/2000/svg">
<path d="M12 0C7.03622 0 3 4.05692 3 9.04615C3 10.4769 3.42704 12.1246 4.26735 13.9431C4.93776 15.3969 5.87908 16.9662 7.05918 18.6092C9.06582 21.4015 11.123 23.5015 11.3526 23.7323C11.527 23.9077 11.7566 24 12 24C12.2434 24 12.473 23.9031 12.652 23.7323C12.8816 23.5015 14.9388 21.4015 16.9454 18.6092C18.1255 16.9662 19.0622 15.3969 19.7372 13.9431C20.573 12.1246 21 10.4769 21 9.04615C21 4.05692 16.9638 0 12 0ZM12 1.84615C15.949 1.84615 19.1633 5.07692 19.1633 9.04615C19.1633 13.56 13.8505 19.7262 12 21.7385C10.1495 19.7262 4.83673 13.56 4.83673 9.04615C4.83673 5.07692 8.05102 1.84615 12 1.84615Z" fill="#343434"/>
<path d="M12 13.6615C14.5301 13.6615 16.5918 11.5892 16.5918 9.04615C16.5918 6.50308 14.5301 4.43077 12 4.43077C9.4699 4.43077 7.40816 6.50308 7.40816 9.04615C7.40816 11.5892 9.4699 13.6615 12 13.6615ZM12 6.27692C13.5199 6.27692 14.7551 7.51846 14.7551 9.04615C14.7551 10.5738 13.5199 11.8154 12 11.8154C10.4801 11.8154 9.2449 10.5738 9.2449 9.04615C9.2449 7.51846 10.4801 6.27692 12 6.27692Z" fill="#343434"/>
</svg>
